<svg width="48" height="48" viewBox="0 0 48 48" fill="none" xmlns="http://www.w3.org/2000/svg">
<circle cx="24" cy="24" r="24" fill="#EBF1FF"/>
<path d="M33.5093 28.7025C33.032 28.4637 32.3622 28.2082 31.6433 27.9635V35.7156C33.9984 34.9492 35.5001 34.1228 35.5001 34.1228C35.5001 34.1228 35.2791 29.5878 33.5093 28.7025Z" fill="#5F6A7F"/>
<path d="M12.5 34.1228C12.5 34.1228 14.0007 34.9492 16.3568 35.7156V27.9635C15.6378 28.2082 14.968 28.4637 14.4917 28.7025C12.722 29.5878 12.5 34.1228 12.5 34.1228Z" fill="#5F6A7F"/>
<path d="M27.4136 31.8549H20.587V26.7255C20.3326 26.7903 19.2562 27.0694 18.0305 27.434V36.2021C19.7767 36.6522 21.8185 37.0001 23.9998 37.0001C26.1801 37.0001 28.2229 36.6522 29.9681 36.2021V27.434C28.7434 27.0694 27.666 26.7903 27.4126 26.7255V31.8549H27.4136Z" fill="#151516"/>
<path fill-rule="evenodd" clip-rule="evenodd" d="M18.5623 18C18.556 18.1656 18.5549 18.3161 18.5607 18.4377C18.5528 18.4426 18.5459 18.4475 18.5391 18.4524C18.0893 18.7217 17.717 19.0214 17.717 19.947C17.717 21.1036 18.2493 22.1344 19.0635 22.6002C19.9612 24.5861 21.7486 26.805 23.9996 26.805C26.2536 26.805 28.04 24.5861 28.9347 22.6002C29.7508 22.1334 30.2822 21.1046 30.2822 19.947C30.2822 19.0214 29.9119 18.7217 29.4631 18.4524C29.4552 18.4475 29.4474 18.4426 29.4405 18.4377C29.4454 18.3165 29.4449 18.1653 29.4383 18H18.5623ZM27.9143 21.9212C27.9752 21.7757 28.0921 21.6598 28.2394 21.5989C28.7324 21.3955 29.0752 20.7155 29.0742 19.9451V19.9451C29.0742 19.6267 29.0742 19.6267 28.8404 19.4852L28.8308 19.4793C28.7133 19.4081 28.5812 19.3279 28.4407 19.2189C28.2669 19.0852 28.1805 18.8671 28.2129 18.6499C28.2129 18.6498 28.213 18.6488 28.2132 18.647C28.2152 18.6289 28.2264 18.5296 28.2335 18.3827C27.0068 18.7688 25.459 19.0057 23.9986 19.0057C22.5304 19.0057 20.9747 18.7669 19.7677 18.3885C19.7745 18.5264 19.7842 18.6222 19.7867 18.6467C19.7871 18.6505 19.7873 18.6526 19.7873 18.6529C19.8207 18.8691 19.7323 19.0862 19.5585 19.2199C19.4141 19.3329 19.2806 19.4144 19.1607 19.4862C18.925 19.6277 18.925 19.6277 18.925 19.946V19.9461C18.925 20.8029 19.3454 21.4269 19.7608 21.5989C19.9071 21.6588 20.024 21.7757 20.0859 21.9212C20.8362 23.6919 22.3821 25.5963 23.9996 25.5963C25.6211 25.5963 27.1649 23.6919 27.9143 21.9212Z" fill="#151516"/>
<path fill-rule="evenodd" clip-rule="evenodd" d="M22 11.3414C20.2839 11.948 18.9261 13.3131 18.3296 15.0338C17.4932 15.4457 17 15.9523 17 16.5C17 16.9849 17.3866 17.4376 18.0557 17.8209C19.2917 18.5289 21.4918 19 24 19C26.5082 19 28.7083 18.5289 29.9443 17.8209C30.6134 17.4376 31 16.9849 31 16.5C31 15.9523 30.5068 15.4457 29.6704 15.0338C29.0739 13.3131 27.7161 11.948 26 11.3414V14H25V11.083C24.6748 11.0284 24.3407 11 24 11C23.6593 11 23.3252 11.0284 23 11.083V14H22V11.3414Z" fill="#3F7FFF"/>
</svg>
