<svg width="400" height="320" viewBox="0 0 400 320" fill="none" xmlns="http://www.w3.org/2000/svg">
<mask id="mask0" mask-type="alpha" maskUnits="userSpaceOnUse" x="0" y="0" width="400" height="320">
<rect width="400" height="320" fill="#20242E"/>
</mask>
<g mask="url(#mask0)">
<path fill-rule="evenodd" clip-rule="evenodd" d="M193 360C270.32 360 333 330.451 333 294C333 257.549 270.32 228 193 228C115.68 228 53 257.549 53 294C53 330.451 115.68 360 193 360Z" fill="url(#paint0_linear)" fill-opacity="0.5"/>
<path fill-rule="evenodd" clip-rule="evenodd" d="M153 248.955L174.992 216L257 223.413C257 223.413 214.397 250 213.332 250C212.266 250 208.44 239.534 189.882 239.534C171.324 239.534 162.654 248.955 162.654 248.955H153Z" fill="url(#paint1_linear)"/>
<path d="M150.845 226.35H150.083C149.023 226.955 148.451 227.598 148.451 228.265C148.451 228.919 149.004 229.552 150.028 230.147C150.118 234.919 151.086 239.529 153.399 243.554C153.76 244.182 153.917 244.894 153.914 245.619V245.629C153.914 248 156.622 249.921 159.962 249.921C160.215 249.921 160.462 249.907 160.707 249.885C162.857 250.043 164.804 248.731 167.006 247.053C172.005 243.244 178.107 241.161 184.392 241.161H185.09C191.375 241.161 197.476 243.244 202.475 247.053C204.677 248.731 206.624 250.043 208.775 249.885C209.019 249.907 209.266 249.921 209.519 249.921C212.859 249.921 215.567 248 215.567 245.629V245.619C215.565 244.894 215.722 244.182 216.083 243.554C218.396 239.529 219.364 234.919 219.454 230.147C220.477 229.552 221.03 228.919 221.03 228.265C221.03 227.588 220.44 226.937 219.35 226.325C219.257 225.024 219.108 223.719 218.914 222.419L219.089 222.46C219.089 222.46 224.152 224.558 226.681 222.781C227.673 222.085 228.949 220.579 228.834 217.144C228.7 213.101 226.423 208.313 223.502 203.777L223.756 203.65C224.729 202.733 225.114 201.892 224.837 201.281C224.79 201.176 224.72 201.085 224.638 201.001C223.508 199.283 216.672 190.927 212.5 190.5C234.842 183.935 246.631 170.534 249.5 158C257.998 160.78 264.471 156.893 266.693 154.742C267.283 154.171 267.136 153.19 266.405 152.814C266.405 152.814 249.633 145.087 247.38 139.377C245.154 67.5399 184.741 50.3621 184.741 50.3621C184.741 50.3621 181.035 61.6391 167.646 72.9334C167.983 72.6488 168.315 72.3613 168.64 72.0693C152.29 70.2375 147.29 54.427 147.29 54.427C147.29 54.427 139.12 71.9734 151.829 83.9887L151.833 83.9859C138.412 93.8104 125.24 107.737 122.406 139.172C119.329 144.812 103.653 152.034 103.653 152.034C102.922 152.409 102.775 153.391 103.365 153.962C105.525 156.052 111.825 159.889 119.926 157.546C122.562 170.234 133.823 183.337 156.5 190" stroke="url(#paint2_linear)" stroke-width="3"/>
<path fill-rule="evenodd" clip-rule="evenodd" d="M262.431 136.599C263.415 135.618 264.43 134.65 265.397 133.637C269.968 128.853 270.411 124.066 266.832 118.495C264.812 115.347 262.02 112.843 259.65 109.985C245.724 93.184 247.096 68.1939 262.306 52.4796C278.396 35.8603 305.641 31.7066 326.607 44.5202C341.964 53.9036 350.024 67.7636 348.896 85.9819C348.243 96.5087 343.161 105.257 335.799 112.708C326.094 122.533 313.934 127.92 300.871 131.492C288.82 134.787 276.507 136.599 263.994 136.933C263.519 136.945 262.995 137.209 262.431 136.599" fill="#616F8C"/>
<path d="M282.946 95.4033C282.893 95.9602 282.694 96.4508 282.349 96.8751C282.031 97.2994 281.646 97.6044 281.196 97.7901C280.771 98.0022 280.32 98.042 279.843 97.9094C279.392 97.8033 278.994 97.4851 278.65 96.9547C278.438 96.6099 278.292 96.2122 278.212 95.7613C278.133 95.3105 278.08 94.8464 278.053 94.3691C278.053 93.8652 278.066 93.3878 278.093 92.937C278.119 92.4862 278.119 92.0884 278.093 91.7436C277.085 91.7436 276.051 91.7436 274.99 91.7436C273.929 91.7171 272.895 91.6906 271.887 91.6641C271.569 91.6641 271.238 91.6641 270.893 91.6641C270.548 91.6641 270.203 91.6376 269.859 91.5845C269.54 91.505 269.235 91.3989 268.944 91.2663C268.652 91.1072 268.4 90.8818 268.188 90.5901C267.843 90.0862 267.697 89.5691 267.75 89.0387C267.83 88.4818 267.989 87.9381 268.228 87.4077C268.493 86.8773 268.798 86.3735 269.143 85.8961C269.487 85.4188 269.752 85.0077 269.938 84.663C270.628 83.4166 271.33 82.1967 272.046 81.0033C272.789 79.7834 273.505 78.5635 274.194 77.3436C274.407 76.9724 274.632 76.5481 274.871 76.0707C275.109 75.5934 275.348 75.116 275.587 74.6387C275.852 74.1613 276.13 73.7105 276.422 73.2862C276.714 72.8354 277.019 72.4508 277.337 72.1326C277.735 71.7613 278.159 71.5359 278.61 71.4564C279.061 71.3768 279.485 71.4166 279.883 71.5757C280.281 71.7348 280.625 72 280.917 72.3713C281.209 72.716 281.381 73.1536 281.434 73.684C281.461 74.0022 281.394 74.3602 281.235 74.758C281.076 75.1558 280.891 75.5536 280.678 75.9514C280.466 76.3227 280.254 76.6674 280.042 76.9856C279.83 77.2773 279.684 77.4895 279.604 77.6221C279.233 78.2851 278.862 78.9348 278.491 79.5713C278.119 80.2077 277.748 80.8442 277.377 81.4807C276.873 82.3823 276.369 83.2707 275.865 84.1459C275.361 85.021 274.844 85.8961 274.314 86.7713C274.977 86.8243 275.6 86.8508 276.183 86.8508C276.793 86.8508 277.403 86.8508 278.013 86.8508C278.04 86.1348 278.04 85.432 278.013 84.7425C277.987 84.0265 278.053 83.337 278.212 82.674C278.345 82.1171 278.623 81.6928 279.048 81.4011C279.498 81.0829 279.976 80.9105 280.48 80.884C280.983 80.8575 281.448 80.9768 281.872 81.242C282.323 81.4807 282.628 81.8917 282.787 82.4751C282.893 82.8729 282.959 83.2972 282.986 83.7481C283.012 84.1724 283.012 84.5967 282.986 85.021C282.986 85.4453 282.972 85.8298 282.946 86.1746C282.946 86.4928 282.946 86.7315 282.946 86.8906C283.291 86.8906 283.609 86.8773 283.901 86.8508C284.219 86.7978 284.537 86.8376 284.855 86.9702C285.253 87.1293 285.611 87.368 285.929 87.6862C286.274 87.9779 286.526 88.3094 286.685 88.6807C286.844 89.0519 286.884 89.4365 286.804 89.8343C286.751 90.232 286.526 90.6166 286.128 90.9878C285.651 91.4387 285.16 91.6906 284.656 91.7436C284.152 91.7967 283.582 91.8232 282.946 91.8232V95.4033ZM304.069 85.5779C304.228 84.7823 304.295 83.8409 304.268 82.7536C304.242 81.6663 304.056 80.6188 303.711 79.6111C303.393 78.6033 302.889 77.7547 302.2 77.0652C301.537 76.3757 300.622 76.0309 299.455 76.0309C298.182 76.0309 297.161 76.442 296.392 77.2641C295.623 78.0862 295.039 79.0939 294.642 80.2873C294.27 81.4541 294.045 82.674 293.965 83.947C293.886 85.1934 293.912 86.2541 294.045 87.1293C294.125 87.7127 294.257 88.3227 294.443 88.9591C294.655 89.5956 294.92 90.179 295.238 90.7094C295.557 91.2398 295.954 91.6641 296.432 91.9823C296.936 92.3006 297.532 92.4464 298.222 92.4199C299.176 92.3669 299.972 92.1547 300.609 91.7834C301.271 91.3856 301.828 90.895 302.279 90.3116C302.73 89.7017 303.088 89.0122 303.353 88.2431C303.645 87.4475 303.87 86.6254 304.03 85.7768L304.069 85.5779ZM308.644 86.3735C308.299 88.3094 307.636 90.1657 306.655 91.9425C305.674 93.6928 304.308 95.1116 302.558 96.1989C301.683 96.6232 300.754 96.9017 299.773 97.0343C298.792 97.1669 297.824 97.1536 296.869 96.9945C295.915 96.8354 295.013 96.5039 294.164 96C293.316 95.5227 292.586 94.8729 291.976 94.0508C290.651 92.2475 289.789 90.3779 289.391 88.442C289.02 86.5061 289.006 84.4641 289.351 82.316C289.59 80.8044 290.001 79.3061 290.584 77.821C291.194 76.3359 292.043 75.0365 293.13 73.9227C294.005 73.021 294.973 72.3448 296.034 71.8939C297.095 71.4166 298.169 71.1646 299.256 71.1381C300.37 71.1116 301.457 71.3105 302.518 71.7348C303.605 72.1591 304.6 72.7956 305.501 73.6442C306.403 74.4928 307.106 75.4343 307.61 76.4685C308.14 77.4762 308.511 78.5238 308.723 79.6111C308.936 80.6983 309.028 81.8254 309.002 82.9923C308.975 84.1326 308.856 85.2597 308.644 86.3735ZM327.102 95.4033C327.049 95.9602 326.85 96.4508 326.505 96.8751C326.187 97.2994 325.803 97.6044 325.352 97.7901C324.928 98.0022 324.477 98.042 323.999 97.9094C323.549 97.8033 323.151 97.4851 322.806 96.9547C322.594 96.6099 322.448 96.2122 322.368 95.7613C322.289 95.3105 322.236 94.8464 322.209 94.3691C322.209 93.8652 322.223 93.3878 322.249 92.937C322.276 92.4862 322.276 92.0884 322.249 91.7436C321.241 91.7436 320.207 91.7436 319.146 91.7436C318.086 91.7171 317.051 91.6906 316.044 91.6641C315.725 91.6641 315.394 91.6641 315.049 91.6641C314.704 91.6641 314.36 91.6376 314.015 91.5845C313.697 91.505 313.392 91.3989 313.1 91.2663C312.808 91.1072 312.556 90.8818 312.344 90.5901C311.999 90.0862 311.853 89.5691 311.907 89.0387C311.986 88.4818 312.145 87.9381 312.384 87.4077C312.649 86.8773 312.954 86.3735 313.299 85.8961C313.644 85.4188 313.909 85.0077 314.094 84.663C314.784 83.4166 315.487 82.1967 316.203 81.0033C316.945 79.7834 317.661 78.5635 318.351 77.3436C318.563 76.9724 318.788 76.5481 319.027 76.0707C319.266 75.5934 319.504 75.116 319.743 74.6387C320.008 74.1613 320.287 73.7105 320.578 73.2862C320.87 72.8354 321.175 72.4508 321.493 72.1326C321.891 71.7613 322.315 71.5359 322.766 71.4564C323.217 71.3768 323.641 71.4166 324.039 71.5757C324.437 71.7348 324.782 72 325.073 72.3713C325.365 72.716 325.537 73.1536 325.591 73.684C325.617 74.0022 325.551 74.3602 325.392 74.758C325.232 75.1558 325.047 75.5536 324.835 75.9514C324.623 76.3227 324.41 76.6674 324.198 76.9856C323.986 77.2773 323.84 77.4895 323.761 77.6221C323.389 78.2851 323.018 78.9348 322.647 79.5713C322.276 80.2077 321.904 80.8442 321.533 81.4807C321.029 82.3823 320.525 83.2707 320.021 84.1459C319.518 85.021 319 85.8961 318.47 86.7713C319.133 86.8243 319.756 86.8508 320.34 86.8508C320.95 86.8508 321.56 86.8508 322.17 86.8508C322.196 86.1348 322.196 85.432 322.17 84.7425C322.143 84.0265 322.209 83.337 322.368 82.674C322.501 82.1171 322.779 81.6928 323.204 81.4011C323.655 81.0829 324.132 80.9105 324.636 80.884C325.14 80.8575 325.604 80.9768 326.028 81.242C326.479 81.4807 326.784 81.8917 326.943 82.4751C327.049 82.8729 327.115 83.2972 327.142 83.7481C327.168 84.1724 327.168 84.5967 327.142 85.021C327.142 85.4453 327.129 85.8298 327.102 86.1746C327.102 86.4928 327.102 86.7315 327.102 86.8906C327.447 86.8906 327.765 86.8773 328.057 86.8508C328.375 86.7978 328.693 86.8376 329.011 86.9702C329.409 87.1293 329.767 87.368 330.086 87.6862C330.43 87.9779 330.682 88.3094 330.841 88.6807C331 89.0519 331.04 89.4365 330.961 89.8343C330.908 90.232 330.682 90.6166 330.284 90.9878C329.807 91.4387 329.316 91.6906 328.813 91.7436C328.309 91.7967 327.739 91.8232 327.102 91.8232V95.4033Z" fill="#20242E"/>
<path fill-rule="evenodd" clip-rule="evenodd" d="M120.895 156.903C111.718 160.489 105.758 156.212 103.433 153.962C102.843 153.391 102.99 152.409 103.721 152.034C103.721 152.034 122.998 143.154 122.998 137.397" fill="#7887A5"/>
<path d="M120.895 156.903C111.718 160.489 105.758 156.212 103.433 153.962C102.843 153.391 102.99 152.409 103.721 152.034C103.721 152.034 122.998 143.154 122.998 137.397" stroke="#6A7793" stroke-width="0.5"/>
<path fill-rule="evenodd" clip-rule="evenodd" d="M249.104 157.506C258.281 161.092 264.24 156.815 266.565 154.565C267.155 153.993 267.008 153.012 266.277 152.637C266.277 152.637 247 143.757 247 138" fill="#7887A5"/>
<path d="M249.3 157.684C258.477 161.27 264.436 156.992 266.761 154.742C267.352 154.171 267.204 153.189 266.474 152.814C266.474 152.814 247.196 143.934 247.196 138.177" stroke="#6A7793" stroke-width="0.5"/>
<path fill-rule="evenodd" clip-rule="evenodd" d="M105.786 153.106C105.786 153.106 103.05 151.317 103.05 153.211C103.05 155.106 110.839 160.685 119.997 157.211C119.997 157.211 114.207 158.369 105.786 153.106" fill="#8B9FC7"/>
<path fill-rule="evenodd" clip-rule="evenodd" d="M105.786 153.106C105.786 153.106 103.05 151.317 103.05 153.211C103.05 155.106 110.839 160.685 119.997 157.211C119.997 157.211 114.207 158.369 105.786 153.106Z" fill="#6A7793"/>
<path fill-rule="evenodd" clip-rule="evenodd" d="M264.408 153.886C264.408 153.886 267.144 152.097 267.144 153.992C267.144 155.886 259.355 161.465 250.197 157.992C250.197 157.992 255.987 159.15 264.408 153.886Z" fill="#6A7793"/>
<path fill-rule="evenodd" clip-rule="evenodd" d="M151.898 83.9885C156.128 80.8913 160.382 78.2005 164.345 75.4977C165.909 74.4316 167.36 73.2792 168.709 72.0691C152.359 70.2372 147.359 54.4268 147.359 54.4268C147.359 54.4268 139.188 71.9731 151.898 83.9885" fill="#20242E"/>
<path fill-rule="evenodd" clip-rule="evenodd" d="M151.898 83.9885C156.128 80.8913 160.382 78.2005 164.345 75.4977C165.909 74.4316 167.36 73.2792 168.709 72.0691C152.359 70.2372 147.359 54.4268 147.359 54.4268C147.359 54.4268 139.188 71.9731 151.898 83.9885Z" stroke="#808DA9" stroke-width="0.5"/>
<path fill-rule="evenodd" clip-rule="evenodd" d="M228.902 217.144C228.615 208.519 218.586 196.508 213.325 190.78C211.577 191.293 209.763 191.762 207.887 192.186C209.188 194.433 216.856 208.151 218.981 222.418L219.157 222.46C219.157 222.46 224.22 224.558 226.749 222.781C227.741 222.085 229.017 220.579 228.902 217.144" fill="#FFFCFA"/>
<path fill-rule="evenodd" clip-rule="evenodd" d="M184.809 194.777C176.247 194.661 168.567 193.738 161.737 192.195C159.785 195.567 143.074 225.466 153.467 243.554C153.828 244.182 153.985 244.895 153.983 245.619V245.629C153.983 248 156.691 249.922 160.031 249.922C160.283 249.922 160.531 249.907 160.775 249.886C162.926 250.043 164.873 248.731 167.074 247.053C172.073 243.243 178.175 241.161 184.46 241.161H185.158C191.443 241.161 197.545 243.243 202.543 247.053C204.745 248.731 206.692 250.043 208.843 249.886C209.087 249.907 209.335 249.922 209.587 249.922C212.927 249.922 215.635 248 215.635 245.629V245.619C215.633 244.895 215.79 244.182 216.151 243.554C226.544 225.466 209.834 195.567 207.881 192.195C201.051 193.738 193.371 194.661 184.809 194.777" fill="#445068"/>
<path fill-rule="evenodd" clip-rule="evenodd" d="M219.419 226.325L219.418 226.305C219.398 226.294 219.38 226.282 219.36 226.271L219.415 226.266C218.289 210.688 209.282 194.597 207.881 192.176C201.051 193.718 193.371 194.642 184.809 194.757C176.247 194.642 168.567 193.718 161.736 192.176C160.332 194.601 151.299 210.745 150.199 226.35H150.151C149.09 226.955 148.52 227.598 148.52 228.265C148.52 231.821 164.767 234.703 184.809 234.703C204.851 234.703 221.098 231.821 221.098 228.265C221.098 227.589 220.508 226.938 219.419 226.325" fill="#445068"/>
<path fill-rule="evenodd" clip-rule="evenodd" d="M196.331 194.251C196.331 197.275 191.238 199.727 184.955 199.727C178.672 199.727 173.578 197.275 173.578 194.251C173.578 191.226 178.672 188.774 184.955 188.774C191.238 188.774 196.331 191.226 196.331 194.251" fill="#3B465E"/>
<path fill-rule="evenodd" clip-rule="evenodd" d="M196.331 194.251C196.331 197.275 191.238 199.727 184.955 199.727C178.672 199.727 173.578 197.275 173.578 194.251C173.578 191.226 178.672 188.774 184.955 188.774C191.238 188.774 196.331 191.226 196.331 194.251Z" stroke="#20242E"/>
<path fill-rule="evenodd" clip-rule="evenodd" d="M203.46 187.33C201.617 196.186 174.645 202.1 166 202.262C166.105 202.36 168.146 205.042 168.146 205.042C168.146 205.042 198.519 200.498 206.01 190.852C205.969 190.73 205.303 178.473 203.46 187.33Z" fill="#20242E"/>
<path fill-rule="evenodd" clip-rule="evenodd" d="M165.532 192.195C165.532 192.195 163.111 195.718 162.532 201.989C161.953 208.261 164.109 202.151 164.109 202.151C164.109 202.151 165.057 195.718 168.235 192.195C171.413 188.672 165.532 192.195 165.532 192.195Z" fill="#20242E"/>
<path d="M148.664 80.2122C148.664 80.2122 157.072 78.4973 162.191 70.442" stroke="#808DA9"/>
<path d="M146.33 75.7613C146.33 75.7613 152.755 75.7613 157.899 68.1677" stroke="#808DA9"/>
<path d="M145.134 70.4418C145.134 70.4418 150.475 70.1708 154.368 65.297" stroke="#808DA9"/>
<path d="M144.934 64.4174C144.934 64.4174 147.336 64.4383 151.01 61.7311" stroke="#808DA9"/>
<path fill-rule="evenodd" clip-rule="evenodd" d="M122.108 144.34C124.439 98.7211 147.141 87.2319 164.345 75.4977C180.495 64.4832 184.809 50.3622 184.809 50.3622C184.809 50.3622 247.996 68.6001 247.51 144.34C247.51 144.34 241.853 172.66 184.492 174.221C127.132 175.782 122.108 144.34 122.108 144.34" fill="#697896"/>
<path d="M122.616 144.337C122.614 144.327 122.612 144.318 122.611 144.309C123.779 121.621 130.004 107.465 138.038 97.5264C144.875 89.0685 153.033 83.6432 160.624 78.5951C161.98 77.6933 163.317 76.8036 164.626 75.9107C172.768 70.3584 177.929 64.0206 181.056 59.0664C182.62 56.5893 183.675 54.4576 184.341 52.9417C184.673 52.1837 184.909 51.5794 185.062 51.1626C185.085 51.0985 185.107 51.0389 185.126 50.9838C185.197 51.0065 185.276 51.0321 185.363 51.0605C185.819 51.2106 186.491 51.4412 187.348 51.762C189.061 52.4037 191.513 53.4057 194.455 54.8445C200.34 57.7224 208.183 62.3452 216.009 69.3219C231.644 83.2589 247.238 106.606 247.01 144.285C247.009 144.292 247.007 144.3 247.005 144.308C246.994 144.357 246.976 144.431 246.949 144.53C246.897 144.727 246.811 145.02 246.682 145.398C246.423 146.152 245.988 147.24 245.288 148.554C243.889 151.182 241.428 154.72 237.188 158.314C228.712 165.497 213.077 172.943 184.479 173.721C155.892 174.499 140.434 167.053 132.127 159.496C127.969 155.713 125.585 151.888 124.242 149.017C123.571 147.581 123.159 146.383 122.916 145.548C122.795 145.131 122.716 144.805 122.667 144.585C122.643 144.475 122.626 144.392 122.616 144.337Z" stroke="url(#paint3_linear)"/>
<path fill-rule="evenodd" clip-rule="evenodd" d="M224.721 121.575C224.721 129.465 220.323 135.862 214.899 135.862C209.474 135.862 205.076 129.465 205.076 121.575C205.076 113.684 209.474 107.287 214.899 107.287C220.323 107.287 224.721 113.684 224.721 121.575" fill="#637292"/>
<path fill-rule="evenodd" clip-rule="evenodd" d="M224.721 121.575C224.721 129.465 220.323 135.862 214.899 135.862C209.474 135.862 205.076 129.465 205.076 121.575C205.076 113.684 209.474 107.287 214.899 107.287C220.323 107.287 224.721 113.684 224.721 121.575Z" stroke="#20242E" stroke-width="2"/>
<path fill-rule="evenodd" clip-rule="evenodd" d="M223.061 121.8C223.061 127.035 220.144 131.279 216.544 131.279C212.946 131.279 210.028 127.035 210.028 121.8C210.028 116.566 212.946 112.322 216.544 112.322C220.144 112.322 223.061 116.566 223.061 121.8" fill="#20242E"/>
<path fill-rule="evenodd" clip-rule="evenodd" d="M214.475 115.221C214.475 115.869 213.95 116.394 213.302 116.394C212.654 116.394 212.129 115.869 212.129 115.221C212.129 114.573 212.654 114.048 213.302 114.048C213.95 114.048 214.475 114.573 214.475 115.221" fill="#606F8C"/>
<path fill-rule="evenodd" clip-rule="evenodd" d="M193.459 176.465C193.554 175.953 193.149 175.484 192.628 175.484H184.809H176.989C176.469 175.484 176.064 175.953 176.158 176.465C176.44 177.99 177.903 181.634 184.809 181.634C191.714 181.634 193.177 177.99 193.459 176.465" fill="white"/>
<path fill-rule="evenodd" clip-rule="evenodd" d="M193.459 176.465C193.554 175.953 193.149 175.484 192.628 175.484H184.809H176.989C176.469 175.484 176.064 175.953 176.158 176.465C176.44 177.99 177.903 181.634 184.809 181.634C191.714 181.634 193.177 177.99 193.459 176.465Z" stroke="#1B2143" stroke-width="0.5"/>
<path fill-rule="evenodd" clip-rule="evenodd" d="M164.542 121.575C164.542 129.465 160.145 135.862 154.72 135.862C149.295 135.862 144.897 129.465 144.897 121.575C144.897 113.684 149.295 107.287 154.72 107.287C160.145 107.287 164.542 113.684 164.542 121.575" fill="#637292"/>
<path fill-rule="evenodd" clip-rule="evenodd" d="M164.645 121.288C164.645 129.178 160.247 135.575 154.823 135.575C149.398 135.575 145 129.178 145 121.288C145 113.397 149.398 107 154.823 107C160.247 107 164.645 113.397 164.645 121.288Z" stroke="#20242E" stroke-width="2"/>
<path fill-rule="evenodd" clip-rule="evenodd" d="M162.882 121.8C162.882 127.035 159.964 131.279 156.365 131.279C152.766 131.279 149.849 127.035 149.849 121.8C149.849 116.566 152.766 112.322 156.365 112.322C159.964 112.322 162.882 116.566 162.882 121.8" fill="#20242E"/>
<path fill-rule="evenodd" clip-rule="evenodd" d="M154.297 115.221C154.297 115.869 153.771 116.394 153.124 116.394C152.476 116.394 151.95 115.869 151.95 115.221C151.95 114.573 152.476 114.048 153.124 114.048C153.771 114.048 154.297 114.573 154.297 115.221" fill="#606F8C"/>
<path fill-rule="evenodd" clip-rule="evenodd" d="M155.033 120.746C155.241 121.667 153.832 122.77 151.886 123.21C149.94 123.65 148.194 123.26 147.985 122.339C147.777 121.418 149.186 120.316 151.132 119.876C153.079 119.436 154.825 119.826 155.033 120.746" fill="#606F8C"/>
<path fill-rule="evenodd" clip-rule="evenodd" d="M214.424 120.746C214.632 121.667 213.223 122.77 211.277 123.21C209.331 123.65 207.584 123.26 207.376 122.339C207.168 121.418 208.577 120.316 210.523 119.876C212.469 119.436 214.216 119.826 214.424 120.746" fill="#606F8C"/>
<path fill-rule="evenodd" clip-rule="evenodd" d="M244.543 136.776C228.47 121.821 184.38 122 184.38 122C184.38 122 140.289 121.821 124.216 136.776C107.366 152.452 123.918 193.494 184.38 194.309C244.841 193.494 261.393 152.452 244.543 136.776" fill="#616F8C"/>
<rect x="212.454" y="143.05" width="6.5" height="9.5" rx="3.25" transform="rotate(-45 212.454 143.05)" fill="#637292" stroke="#20242E" stroke-width="1.5"/>
<rect x="220.232" y="150.828" width="6.5" height="9.5" rx="3.25" transform="rotate(-45 220.232 150.828)" fill="#637292" stroke="#20242E" stroke-width="1.5"/>
<rect x="226.949" y="138.454" width="6.5" height="9.5" rx="3.25" transform="rotate(45 226.949 138.454)" fill="#637292" stroke="#20242E" stroke-width="1.5"/>
<rect x="219.171" y="146.232" width="6.5" height="9.5" rx="3.25" transform="rotate(45 219.171 146.232)" fill="#637292" stroke="#20242E" stroke-width="1.5"/>
<rect x="217.403" y="148" width="6.5" height="6.5" transform="rotate(-45 217.403 148)" fill="#637292" stroke="#20242E" stroke-width="1.5"/>
<path d="M172 171.261C172 171.261 185.5 159.064 198.519 171.261" stroke="#20242E" stroke-width="3" stroke-linecap="round"/>
<path fill-rule="evenodd" clip-rule="evenodd" d="M248.672 142.001C250.664 159.61 231.358 184.316 185.75 184.932C136.851 184.272 118.188 155.921 123.592 138.313C108.548 154.703 125.672 193.979 184.809 194.777C239.876 194.034 258.514 159.925 248.672 142.001" fill="#697896"/>
<path d="M160.892 95C160.892 95 160.259 99.9836 155.054 100.825C149.849 101.666 147.033 101.17 147.033 101.17" stroke="#20242E" stroke-width="2.48154" stroke-linecap="round"/>
<path d="M207 95C207 95 207.632 99.9836 212.838 100.825C218.043 101.666 220.858 101.17 220.858 101.17" stroke="#20242E" stroke-width="2.48154" stroke-linecap="round"/>
<path fill-rule="evenodd" clip-rule="evenodd" d="M221.667 200.631C223.398 200.321 224.579 200.558 224.906 201.281C225.182 201.892 224.797 202.733 223.824 203.65L223.515 203.804L223.423 203.664C222.84 202.775 222.207 201.858 221.543 200.937L221.361 200.685L221.667 200.631Z" fill="#20242E"/>
<path fill-rule="evenodd" clip-rule="evenodd" d="M208.158 192.246C210 191.83 211.868 191.343 213.71 190.798L213.772 190.78L213.914 190.832C218.118 191.262 223.664 199.411 224.734 201.043L224.722 201.041C224.107 200.375 221.392 200.735 218.407 202.082C216.68 202.861 215.176 203.891 214.384 204.838L214.108 205.193L213.914 204.689L213.897 204.647C211.346 198.406 208.763 193.798 208.032 192.534L207.899 192.305L208.158 192.246Z" fill="#445068"/>
<path fill-rule="evenodd" clip-rule="evenodd" d="M228.902 217.144C228.768 213.101 226.492 208.313 223.57 203.777L223.515 203.804L223.422 203.663C222.848 202.789 222.226 201.886 221.574 200.981C220.622 201.206 219.534 201.573 218.406 202.082C216.679 202.861 215.176 203.891 214.384 204.838L214.111 205.189C216.128 210.252 218.067 216.283 218.981 222.418L219.157 222.46C219.157 222.46 224.22 224.558 226.749 222.781C227.741 222.085 229.017 220.579 228.902 217.144" fill="#697896"/>
<path fill-rule="evenodd" clip-rule="evenodd" d="M216.123 203.346C215.398 203.836 214.794 204.348 214.384 204.838L214.111 205.188C216.128 210.252 218.067 216.283 218.981 222.419L219.157 222.46C219.157 222.46 220.353 222.955 221.872 223.26C220.912 216.072 218.49 208.971 216.123 203.346" fill="#586581"/>
<path fill-rule="evenodd" clip-rule="evenodd" d="M146.462 137.705C147.332 137.904 147.994 138.688 147.887 139.575C147.776 140.492 147.511 141.275 146.32 142.229C144.187 144.073 138.874 146.64 137.356 143.676C135.174 139.416 141.299 136.524 146.462 137.705" fill="#20242E"/>
<path fill-rule="evenodd" clip-rule="evenodd" d="M216.123 203.346C216.123 203.346 212.708 197.9 210.557 196.128C210.557 196.128 213.618 202.48 214.112 205.188C214.112 205.188 215.235 203.858 216.123 203.346" fill="#3B465E"/>
<path fill-rule="evenodd" clip-rule="evenodd" d="M161.727 192.193C160.296 194.668 151.297 210.777 150.2 226.35L150.152 226.35C149.091 226.955 148.521 227.598 148.521 228.265C148.521 229.085 149.387 229.87 150.964 230.592C150.653 230.247 150.488 229.893 150.488 229.533C150.488 228.846 151.077 228.183 152.169 227.56H152.219C153.312 212.031 162.032 195.987 163.928 192.661C163.185 192.512 162.451 192.356 161.727 192.193" fill="#606D89"/>
<path fill-rule="evenodd" clip-rule="evenodd" d="M151.696 217C150.962 220.061 150.421 223.217 150.2 226.35L150.152 226.35C149.091 226.955 148.521 227.598 148.521 228.265C148.521 229.085 149.387 229.87 150.964 230.592C150.653 230.247 150.488 229.893 150.488 229.533C150.488 228.846 151.077 228.183 152.169 227.56H152.219C152.469 224.015 153.116 220.442 153.989 217H151.696Z" fill="#596681"/>
<path fill-rule="evenodd" clip-rule="evenodd" d="M154.5 191.5C154.5 191.5 142.4 200.539 142.4 203.192C142.4 205.845 140.748 206.424 142.4 211.392C144.053 216.36 146.178 216.826 147.223 216.826C148.267 216.826 150.858 218.208 154.617 217.952C158.376 217.697 160.096 218.446 162.553 217.697C165.01 216.947 169.903 215.748 170.402 214.885C170.902 214.022 171.212 213.316 172 211.392C172.787 209.468 172 208.944 172 207.589C172 206.233 171.428 205.735 170.915 204.77C170.402 203.804 170.617 203.704 168.54 203.346C166.464 202.988 165.709 202.657 164.589 202.596C163.468 202.535 163.271 202.535 162.553 202.535C161.835 202.535 161.107 202.919 160.505 202.535C159.903 202.151 159.742 202.535 159.059 202.535C158.376 202.535 159.014 202.919 157.507 202.535C156 202.151 161.835 194.251 161.835 194.251L154.5 191.5Z" fill="#697896"/>
<path d="M166.5 208C166.5 208 166.003 213.623 163.5 216.5" stroke="#20242E" stroke-width="1.4" stroke-linecap="round"/>
<path d="M156.5 203C156.5 203 163.112 207.362 160.505 216.826" stroke="#20242E" stroke-width="1.4" stroke-linecap="round"/>
<path d="M154 201C154 201 155.753 208.859 153.5 213.5" stroke="#20242E" stroke-width="1.4" stroke-linecap="round"/>
<path d="M148 199C148 199 153.978 210.635 153.97 216.947" stroke="#20242E" stroke-width="1.4" stroke-linecap="round"/>
<path d="M151.509 207.138C151.509 207.138 149.822 213.213 145.87 215.154" stroke="#20242E" stroke-width="1.4" stroke-linecap="round"/>
<path d="M162.509 203.192C162.509 203.192 168.846 208.025 168.54 216.123" stroke="#20242E" stroke-width="1.4" stroke-linecap="round"/>
<path fill-rule="evenodd" clip-rule="evenodd" d="M156.576 203.192H164.434C165.202 203.192 165.203 202 164.434 202H156.576C155.809 202 155.807 203.192 156.576 203.192" fill="#5F6D88"/>
<path d="M156.576 203.192H164.434C165.202 203.192 165.203 202 164.434 202H156.576C155.809 202 155.807 203.192 156.576 203.192" stroke="#5D6B86"/>
<path fill-rule="evenodd" clip-rule="evenodd" d="M171.674 208.598C172.303 211.632 170.135 214.513 167.49 215.848C166.804 216.194 167.407 217.223 168.091 216.878C171.206 215.306 173.603 211.806 172.824 208.281C172.052 204.786 168.236 201.788 164.68 202C163.923 202.045 163.916 203.27 164.68 203.192C167.783 203.192 171.047 205.569 171.674 208.598Z" fill="#5F6D88" stroke="#5D6B86"/>
<path fill-rule="evenodd" clip-rule="evenodd" d="M141.027 208.86C141.295 212.584 143.447 216.273 147.036 217.571C152.478 219.539 163.562 217.874 167.807 216.998C168.558 216.843 168.24 215.694 167.49 215.848C163.617 216.647 152.478 218.344 147.75 216.583C144.237 215.275 142.094 211.553 142.195 207.9C142.376 201.303 149.322 194.005 155.39 192.292C156.127 192.084 155.814 190.933 155.073 191.142C148.268 193.063 140.486 201.322 141.027 208.86Z" fill="#5F6D88" stroke="#5D6B86"/>
<path fill-rule="evenodd" clip-rule="evenodd" d="M162.25 193.127C160.408 192.711 157.4 191.291 155.558 190.746L155.496 190.728L155.354 190.78C148.799 191.5 144.152 198.44 143.081 200.072C143.081 200.072 148.776 199.09 151.76 200.438C153.487 201.217 154.725 202.21 156.223 203.735C158.919 199.273 161.645 194.679 162.376 193.415L162.509 193.186L162.25 193.127Z" fill="#445068"/>
<path fill-rule="evenodd" clip-rule="evenodd" d="M244.973 137.243C228.9 122.289 184.809 122.468 184.809 122.468C184.809 122.468 140.719 122.289 124.645 137.243C107.796 152.92 124.348 193.961 184.809 194.777C245.271 193.961 261.823 152.92 244.973 137.243Z" stroke="#20242E" stroke-width="2"/>
<path fill-rule="evenodd" clip-rule="evenodd" d="M184.809 234.116C180.644 234.116 176.613 234.015 172.787 233.826C173.423 237.644 178.562 240.62 184.809 240.62C191.056 240.62 196.195 237.644 196.831 233.826C193.005 234.015 188.974 234.116 184.809 234.116" fill="#3B465E"/>
<path fill-rule="evenodd" clip-rule="evenodd" d="M219.36 226.291C220.489 226.913 221.098 227.576 221.098 228.265C221.098 231.821 204.851 234.703 184.809 234.703C164.767 234.703 148.52 231.821 148.52 228.265C148.52 227.598 149.09 226.955 150.151 226.35" fill="#3B465E"/>
<path d="M219.43 226.5C220.55 227.122 220.519 227.576 220.519 228.265C220.519 231.821 204.402 234.703 184.519 234.703C164.637 234.703 148.52 231.821 148.52 228.265C148.52 227.598 149.086 226.955 150.138 226.35" stroke="#20242E" stroke-width="2" stroke-linecap="round" stroke-linejoin="round"/>
<path fill-rule="evenodd" clip-rule="evenodd" d="M200.338 214.885C200.338 214.885 186.608 227.852 167.156 229.187C167.156 229.187 179.526 229.941 191.73 223.457C194.301 222.091 198.812 219.271 200.338 214.885" fill="#3B465E"/>
</g>
<defs>
<linearGradient id="paint0_linear" x1="131.455" y1="218.427" x2="131.455" y2="276.455" gradientUnits="userSpaceOnUse">
<stop stop-color="#5D6E90"/>
<stop offset="1" stop-color="#20242E" stop-opacity="0"/>
</linearGradient>
<linearGradient id="paint1_linear" x1="214.953" y1="249.55" x2="222.127" y2="227.255" gradientUnits="userSpaceOnUse">
<stop stop-color="#323A4B"/>
<stop offset="1" stop-color="#20242E" stop-opacity="0"/>
</linearGradient>
<linearGradient id="paint2_linear" x1="185.029" y1="50.3621" x2="185.029" y2="249.921" gradientUnits="userSpaceOnUse">
<stop stop-color="#8592AD"/>
<stop offset="1" stop-color="#525F7A"/>
</linearGradient>
<linearGradient id="paint3_linear" x1="184.811" y1="50.3622" x2="184.811" y2="134" gradientUnits="userSpaceOnUse">
<stop stop-color="#8491AD"/>
<stop offset="1" stop-color="#73809C"/>
</linearGradient>
</defs>
</svg>
