<svg width="400" height="320" viewBox="0 0 400 320" fill="none" xmlns="http://www.w3.org/2000/svg">
<mask id="mask0" mask-type="alpha" maskUnits="userSpaceOnUse" x="0" y="0" width="400" height="320">
<rect width="400" height="320" fill="#C4C4C4"/>
</mask>
<g mask="url(#mask0)">
<path fill-rule="evenodd" clip-rule="evenodd" d="M192 361C269.32 361 332 331.451 332 295C332 258.549 269.32 229 192 229C114.68 229 52 258.549 52 295C52 331.451 114.68 361 192 361Z" fill="url(#paint0_linear)"/>
<path fill-rule="evenodd" clip-rule="evenodd" d="M152 249.955L173.992 217L256 224.413C256 224.413 213.397 251 212.332 251C211.266 251 207.44 240.534 188.882 240.534C170.324 240.534 161.654 249.955 161.654 249.955H152Z" fill="url(#paint1_linear)"/>
<path d="M149.845 227.35H149.083C148.023 227.955 147.451 228.598 147.451 229.265C147.451 229.919 148.004 230.552 149.028 231.147C149.118 235.919 150.086 240.529 152.399 244.554C152.76 245.182 152.917 245.894 152.914 246.619V246.629C152.914 249 155.622 250.921 158.962 250.921C159.215 250.921 159.462 250.907 159.707 250.885C161.857 251.043 163.804 249.731 166.006 248.053C171.005 244.244 177.107 242.161 183.392 242.161H184.09C190.375 242.161 196.476 244.244 201.475 248.053C203.677 249.731 205.624 251.043 207.775 250.885C208.019 250.907 208.266 250.921 208.519 250.921C211.859 250.921 214.567 249 214.567 246.629V246.619C214.565 245.894 214.722 245.182 215.083 244.554C217.396 240.529 218.364 235.919 218.454 231.147C219.477 230.552 220.03 229.919 220.03 229.265C220.03 228.588 219.44 227.937 218.35 227.325C218.257 226.024 218.108 224.719 217.914 223.419L218.089 223.46C218.089 223.46 223.152 225.558 225.681 223.781C226.673 223.085 227.949 221.579 227.834 218.144C227.7 214.101 225.423 209.313 222.502 204.777L222.756 204.65C223.729 203.733 224.114 202.892 223.837 202.281C223.79 202.176 223.72 202.085 223.638 202.001C222.508 200.283 217.017 192.259 212.845 191.832L212.703 191.78L212.642 191.798C212.544 191.827 212.447 191.854 212.349 191.882C212.319 191.849 212.287 191.813 212.256 191.78C234.598 185.215 246.56 171.643 249.429 159.109C257.927 161.889 263.471 157.893 265.693 155.742C266.283 155.171 266.136 154.19 265.405 153.814C265.405 153.814 248.633 146.087 246.38 140.377C244.154 68.5399 183.741 51.3621 183.741 51.3621C183.741 51.3621 180.035 62.6391 166.646 73.9334C166.983 73.6488 167.315 73.3613 167.64 73.0693C151.29 71.2375 146.29 55.427 146.29 55.427C146.29 55.427 138.12 72.9734 150.829 84.9887C150.83 84.9875 150.831 84.9867 150.833 84.9859C137.412 94.8104 124.24 108.737 121.406 140.172C118.329 145.812 102.653 153.034 102.653 153.034C101.922 153.409 101.775 154.391 102.365 154.962C104.525 157.052 109.825 160.889 117.926 158.546C120.562 171.234 132.548 185.117 155.225 191.78C155.196 191.812 155.164 191.847 155.134 191.879C155.04 191.852 154.946 191.826 154.852 191.798L154.79 191.78L154.648 191.832" stroke="#D2E2FA" stroke-width="3.22581"/>
<path fill-rule="evenodd" clip-rule="evenodd" d="M261.431 137.599C262.415 136.618 263.43 135.65 264.397 134.637C268.968 129.853 269.411 125.066 265.832 119.495C263.812 116.347 261.02 113.843 258.65 110.985C244.724 94.184 246.096 69.1939 261.306 53.4796C277.396 36.8603 304.641 32.7066 325.607 45.5202C340.964 54.9036 349.024 68.7636 347.896 86.9819C347.243 97.5087 342.161 106.257 334.799 113.708C325.094 123.533 312.934 128.92 299.871 132.492C287.82 135.787 275.507 137.599 262.994 137.933C262.519 137.945 261.995 138.209 261.431 137.599" fill="#F8FBFF"/>
<path d="M281.946 96.4033C281.893 96.9602 281.694 97.4508 281.349 97.8751C281.031 98.2994 280.646 98.6044 280.196 98.7901C279.771 99.0022 279.32 99.042 278.843 98.9094C278.392 98.8033 277.994 98.4851 277.65 97.9547C277.438 97.6099 277.292 97.2122 277.212 96.7613C277.133 96.3105 277.08 95.8464 277.053 95.3691C277.053 94.8652 277.066 94.3878 277.093 93.937C277.119 93.4862 277.119 93.0884 277.093 92.7436C276.085 92.7436 275.051 92.7436 273.99 92.7436C272.929 92.7171 271.895 92.6906 270.887 92.6641C270.569 92.6641 270.238 92.6641 269.893 92.6641C269.548 92.6641 269.203 92.6376 268.859 92.5845C268.54 92.505 268.235 92.3989 267.944 92.2663C267.652 92.1072 267.4 91.8818 267.188 91.5901C266.843 91.0862 266.697 90.5691 266.75 90.0387C266.83 89.4818 266.989 88.9381 267.228 88.4077C267.493 87.8773 267.798 87.3735 268.143 86.8961C268.487 86.4188 268.752 86.0077 268.938 85.663C269.628 84.4166 270.33 83.1967 271.046 82.0033C271.789 80.7834 272.505 79.5635 273.194 78.3436C273.407 77.9724 273.632 77.5481 273.871 77.0707C274.109 76.5934 274.348 76.116 274.587 75.6387C274.852 75.1613 275.13 74.7105 275.422 74.2862C275.714 73.8354 276.019 73.4508 276.337 73.1326C276.735 72.7613 277.159 72.5359 277.61 72.4564C278.061 72.3768 278.485 72.4166 278.883 72.5757C279.281 72.7348 279.625 73 279.917 73.3713C280.209 73.716 280.381 74.1536 280.434 74.684C280.461 75.0022 280.394 75.3602 280.235 75.758C280.076 76.1558 279.891 76.5536 279.678 76.9514C279.466 77.3227 279.254 77.6674 279.042 77.9856C278.83 78.2773 278.684 78.4895 278.604 78.6221C278.233 79.2851 277.862 79.9348 277.491 80.5713C277.119 81.2077 276.748 81.8442 276.377 82.4807C275.873 83.3823 275.369 84.2707 274.865 85.1459C274.361 86.021 273.844 86.8961 273.314 87.7713C273.977 87.8243 274.6 87.8508 275.183 87.8508C275.793 87.8508 276.403 87.8508 277.013 87.8508C277.04 87.1348 277.04 86.432 277.013 85.7425C276.987 85.0265 277.053 84.337 277.212 83.674C277.345 83.1171 277.623 82.6928 278.048 82.4011C278.498 82.0829 278.976 81.9105 279.48 81.884C279.983 81.8575 280.448 81.9768 280.872 82.242C281.323 82.4807 281.628 82.8917 281.787 83.4751C281.893 83.8729 281.959 84.2972 281.986 84.7481C282.012 85.1724 282.012 85.5967 281.986 86.021C281.986 86.4453 281.972 86.8298 281.946 87.1746C281.946 87.4928 281.946 87.7315 281.946 87.8906C282.291 87.8906 282.609 87.8773 282.901 87.8508C283.219 87.7978 283.537 87.8376 283.855 87.9702C284.253 88.1293 284.611 88.368 284.929 88.6862C285.274 88.9779 285.526 89.3094 285.685 89.6807C285.844 90.0519 285.884 90.4365 285.804 90.8343C285.751 91.232 285.526 91.6166 285.128 91.9878C284.651 92.4387 284.16 92.6906 283.656 92.7436C283.152 92.7967 282.582 92.8232 281.946 92.8232V96.4033ZM303.069 86.5779C303.228 85.7823 303.295 84.8409 303.268 83.7536C303.242 82.6663 303.056 81.6188 302.711 80.6111C302.393 79.6033 301.889 78.7547 301.2 78.0652C300.537 77.3757 299.622 77.0309 298.455 77.0309C297.182 77.0309 296.161 77.442 295.392 78.2641C294.623 79.0862 294.039 80.0939 293.642 81.2873C293.27 82.4541 293.045 83.674 292.965 84.947C292.886 86.1934 292.912 87.2541 293.045 88.1293C293.125 88.7127 293.257 89.3227 293.443 89.9591C293.655 90.5956 293.92 91.179 294.238 91.7094C294.557 92.2398 294.954 92.6641 295.432 92.9823C295.936 93.3006 296.532 93.4464 297.222 93.4199C298.176 93.3669 298.972 93.1547 299.609 92.7834C300.271 92.3856 300.828 91.895 301.279 91.3116C301.73 90.7017 302.088 90.0122 302.353 89.2431C302.645 88.4475 302.87 87.6254 303.03 86.7768L303.069 86.5779ZM307.644 87.3735C307.299 89.3094 306.636 91.1657 305.655 92.9425C304.674 94.6928 303.308 96.1116 301.558 97.1989C300.683 97.6232 299.754 97.9017 298.773 98.0343C297.792 98.1669 296.824 98.1536 295.869 97.9945C294.915 97.8354 294.013 97.5039 293.164 97C292.316 96.5227 291.586 95.8729 290.976 95.0508C289.651 93.2475 288.789 91.3779 288.391 89.442C288.02 87.5061 288.006 85.4641 288.351 83.316C288.59 81.8044 289.001 80.3061 289.584 78.821C290.194 77.3359 291.043 76.0365 292.13 74.9227C293.005 74.021 293.973 73.3448 295.034 72.8939C296.095 72.4166 297.169 72.1646 298.256 72.1381C299.37 72.1116 300.457 72.3105 301.518 72.7348C302.605 73.1591 303.6 73.7956 304.501 74.6442C305.403 75.4928 306.106 76.4343 306.61 77.4685C307.14 78.4762 307.511 79.5238 307.723 80.6111C307.936 81.6983 308.028 82.8254 308.002 83.9923C307.975 85.1326 307.856 86.2597 307.644 87.3735ZM326.102 96.4033C326.049 96.9602 325.85 97.4508 325.505 97.8751C325.187 98.2994 324.803 98.6044 324.352 98.7901C323.928 99.0022 323.477 99.042 322.999 98.9094C322.549 98.8033 322.151 98.4851 321.806 97.9547C321.594 97.6099 321.448 97.2122 321.368 96.7613C321.289 96.3105 321.236 95.8464 321.209 95.3691C321.209 94.8652 321.223 94.3878 321.249 93.937C321.276 93.4862 321.276 93.0884 321.249 92.7436C320.241 92.7436 319.207 92.7436 318.146 92.7436C317.086 92.7171 316.051 92.6906 315.044 92.6641C314.725 92.6641 314.394 92.6641 314.049 92.6641C313.704 92.6641 313.36 92.6376 313.015 92.5845C312.697 92.505 312.392 92.3989 312.1 92.2663C311.808 92.1072 311.556 91.8818 311.344 91.5901C310.999 91.0862 310.853 90.5691 310.907 90.0387C310.986 89.4818 311.145 88.9381 311.384 88.4077C311.649 87.8773 311.954 87.3735 312.299 86.8961C312.644 86.4188 312.909 86.0077 313.094 85.663C313.784 84.4166 314.487 83.1967 315.203 82.0033C315.945 80.7834 316.661 79.5635 317.351 78.3436C317.563 77.9724 317.788 77.5481 318.027 77.0707C318.266 76.5934 318.504 76.116 318.743 75.6387C319.008 75.1613 319.287 74.7105 319.578 74.2862C319.87 73.8354 320.175 73.4508 320.493 73.1326C320.891 72.7613 321.315 72.5359 321.766 72.4564C322.217 72.3768 322.641 72.4166 323.039 72.5757C323.437 72.7348 323.782 73 324.073 73.3713C324.365 73.716 324.537 74.1536 324.591 74.684C324.617 75.0022 324.551 75.3602 324.392 75.758C324.232 76.1558 324.047 76.5536 323.835 76.9514C323.623 77.3227 323.41 77.6674 323.198 77.9856C322.986 78.2773 322.84 78.4895 322.761 78.6221C322.389 79.2851 322.018 79.9348 321.647 80.5713C321.276 81.2077 320.904 81.8442 320.533 82.4807C320.029 83.3823 319.525 84.2707 319.021 85.1459C318.518 86.021 318 86.8961 317.47 87.7713C318.133 87.8243 318.756 87.8508 319.34 87.8508C319.95 87.8508 320.56 87.8508 321.17 87.8508C321.196 87.1348 321.196 86.432 321.17 85.7425C321.143 85.0265 321.209 84.337 321.368 83.674C321.501 83.1171 321.779 82.6928 322.204 82.4011C322.655 82.0829 323.132 81.9105 323.636 81.884C324.14 81.8575 324.604 81.9768 325.028 82.242C325.479 82.4807 325.784 82.8917 325.943 83.4751C326.049 83.8729 326.115 84.2972 326.142 84.7481C326.168 85.1724 326.168 85.5967 326.142 86.021C326.142 86.4453 326.129 86.8298 326.102 87.1746C326.102 87.4928 326.102 87.7315 326.102 87.8906C326.447 87.8906 326.765 87.8773 327.057 87.8508C327.375 87.7978 327.693 87.8376 328.011 87.9702C328.409 88.1293 328.767 88.368 329.086 88.6862C329.43 88.9779 329.682 89.3094 329.841 89.6807C330 90.0519 330.04 90.4365 329.961 90.8343C329.908 91.232 329.682 91.6166 329.284 91.9878C328.807 92.4387 328.316 92.6906 327.813 92.7436C327.309 92.7967 326.739 92.8232 326.102 92.8232V96.4033Z" fill="#D2E2FA"/>
<path fill-rule="evenodd" clip-rule="evenodd" d="M119.895 157.903C110.718 161.489 104.758 157.212 102.433 154.962C101.843 154.391 101.99 153.409 102.721 153.034C102.721 153.034 121.998 144.154 121.998 138.397" fill="#F8FBFF"/>
<path d="M119.895 157.903C110.718 161.489 104.758 157.212 102.433 154.962C101.843 154.391 101.99 153.409 102.721 153.034C102.721 153.034 121.998 144.154 121.998 138.397" stroke="#D2E2FA" stroke-width="0.5"/>
<path fill-rule="evenodd" clip-rule="evenodd" d="M248.3 158.684C257.477 162.27 263.436 157.992 265.761 155.742C266.352 155.171 266.204 154.19 265.474 153.815C265.474 153.815 246.196 144.934 246.196 139.177" fill="#F8FBFF"/>
<path d="M248.3 158.684C257.477 162.27 263.436 157.992 265.761 155.742C266.352 155.171 266.204 154.19 265.474 153.815C265.474 153.815 246.196 144.934 246.196 139.177" stroke="#D2E2FA" stroke-width="0.5"/>
<path fill-rule="evenodd" clip-rule="evenodd" d="M104.786 154.106C104.786 154.106 102.05 152.317 102.05 154.211C102.05 156.106 109.839 161.685 118.997 158.211C118.997 158.211 113.207 159.369 104.786 154.106" fill="#D2E2FA"/>
<path fill-rule="evenodd" clip-rule="evenodd" d="M104.786 154.106C104.786 154.106 102.05 152.317 102.05 154.211C102.05 156.106 109.839 161.685 118.997 158.211C118.997 158.211 113.207 159.369 104.786 154.106Z" stroke="#D2E2FA" stroke-width="0.5"/>
<path fill-rule="evenodd" clip-rule="evenodd" d="M263.408 154.886C263.408 154.886 266.144 153.097 266.144 154.992C266.144 156.886 258.355 162.465 249.197 158.992C249.197 158.992 254.987 160.15 263.408 154.886" fill="#D2E2FA"/>
<path fill-rule="evenodd" clip-rule="evenodd" d="M263.408 154.886C263.408 154.886 266.144 153.097 266.144 154.992C266.144 156.886 258.355 162.465 249.197 158.992C249.197 158.992 254.987 160.15 263.408 154.886Z" stroke="#D2E2FA" stroke-width="0.5"/>
<path fill-rule="evenodd" clip-rule="evenodd" d="M150.898 84.9885C155.128 81.8913 159.382 79.2005 163.345 76.4977C164.909 75.4316 166.36 74.2792 167.709 73.0691C151.359 71.2372 146.359 55.4268 146.359 55.4268C146.359 55.4268 138.188 72.9731 150.898 84.9885" fill="#F8FBFF"/>
<path fill-rule="evenodd" clip-rule="evenodd" d="M150.898 84.9885C155.128 81.8913 159.382 79.2005 163.345 76.4977C164.909 75.4316 166.36 74.2792 167.709 73.0691C151.359 71.2372 146.359 55.4268 146.359 55.4268C146.359 55.4268 138.188 72.9731 150.898 84.9885Z" stroke="#D2E2FA" stroke-width="0.5"/>
<path fill-rule="evenodd" clip-rule="evenodd" d="M227.902 218.144C227.615 209.519 217.586 197.508 212.325 191.78C210.577 192.293 208.763 192.762 206.887 193.186C208.188 195.433 215.856 209.151 217.981 223.418L218.157 223.46C218.157 223.46 223.22 225.558 225.749 223.781C226.741 223.085 228.017 221.579 227.902 218.144" fill="#FFFCFA"/>
<path fill-rule="evenodd" clip-rule="evenodd" d="M183.809 195.777C175.247 195.661 167.567 194.738 160.737 193.195C158.785 196.567 142.074 226.466 152.467 244.554C152.828 245.182 152.985 245.895 152.983 246.619V246.629C152.983 249 155.691 250.922 159.031 250.922C159.283 250.922 159.531 250.907 159.775 250.886C161.926 251.043 163.873 249.731 166.074 248.053C171.073 244.243 177.175 242.161 183.46 242.161H184.158C190.443 242.161 196.545 244.243 201.543 248.053C203.745 249.731 205.692 251.043 207.843 250.886C208.087 250.907 208.335 250.922 208.587 250.922C211.927 250.922 214.635 249 214.635 246.629V246.619C214.633 245.895 214.79 245.182 215.151 244.554C225.544 226.466 208.834 196.567 206.881 193.195C200.051 194.738 192.371 195.661 183.809 195.777" fill="#F8FBFF"/>
<path fill-rule="evenodd" clip-rule="evenodd" d="M218.419 227.325L218.418 227.305C218.398 227.294 218.38 227.282 218.36 227.271L218.415 227.266C217.289 211.688 208.282 195.597 206.881 193.176C200.051 194.718 192.371 195.642 183.809 195.757C175.247 195.642 167.567 194.718 160.736 193.176C159.332 195.601 150.299 211.745 149.199 227.35H149.151C148.09 227.955 147.52 228.598 147.52 229.265C147.52 232.821 163.767 235.703 183.809 235.703C203.851 235.703 220.098 232.821 220.098 229.265C220.098 228.589 219.508 227.938 218.419 227.325" fill="#E0EEFF"/>
<path fill-rule="evenodd" clip-rule="evenodd" d="M195.331 195.251C195.331 198.275 190.238 200.727 183.955 200.727C177.672 200.727 172.578 198.275 172.578 195.251C172.578 192.226 177.672 189.774 183.955 189.774C190.238 189.774 195.331 192.226 195.331 195.251" fill="#F8FBFF"/>
<path fill-rule="evenodd" clip-rule="evenodd" d="M195.331 195.251C195.331 198.275 190.238 200.727 183.955 200.727C177.672 200.727 172.578 198.275 172.578 195.251C172.578 192.226 177.672 189.774 183.955 189.774C190.238 189.774 195.331 192.226 195.331 195.251Z" stroke="#D2E2FA"/>
<path fill-rule="evenodd" clip-rule="evenodd" d="M202.46 188.33C200.617 197.186 173.645 203.1 165 203.262C165.105 203.36 167.146 206.042 167.146 206.042C167.146 206.042 197.519 201.498 205.01 191.852C204.969 191.73 204.303 179.473 202.46 188.33Z" fill="white"/>
<path fill-rule="evenodd" clip-rule="evenodd" d="M164.532 193.195C164.532 193.195 162.111 196.718 161.532 202.989C160.953 209.261 163.109 203.151 163.109 203.151C163.109 203.151 164.057 196.718 167.235 193.195C170.413 189.672 164.532 193.195 164.532 193.195Z" fill="white"/>
<path d="M147.664 81.2122C147.664 81.2122 156.072 79.4973 161.191 71.442" stroke="#D2E2FA"/>
<path d="M145.33 76.7613C145.33 76.7613 151.755 76.7613 156.899 69.1677" stroke="#D2E2FA"/>
<path d="M144.134 71.4418C144.134 71.4418 149.475 71.1708 153.368 66.297" stroke="#D2E2FA"/>
<path d="M143.934 65.4174C143.934 65.4174 146.336 65.4383 150.01 62.7311" stroke="#D2E2FA"/>
<path fill-rule="evenodd" clip-rule="evenodd" d="M121.108 145.34C123.439 99.7211 146.141 88.2319 163.345 76.4977C179.495 65.4832 183.809 51.3622 183.809 51.3622C183.809 51.3622 246.996 69.6001 246.51 145.34C246.51 145.34 240.853 173.66 183.492 175.221C126.132 176.782 121.108 145.34 121.108 145.34" fill="#F8FBFF"/>
<path fill-rule="evenodd" clip-rule="evenodd" d="M121.108 145.34C123.439 99.7211 146.141 88.2319 163.345 76.4977C179.495 65.4832 183.809 51.3622 183.809 51.3622C183.809 51.3622 246.996 69.6001 246.51 145.34C246.51 145.34 240.853 173.66 183.492 175.221C126.132 176.782 121.108 145.34 121.108 145.34Z" stroke="#D2E2FA"/>
<path fill-rule="evenodd" clip-rule="evenodd" d="M223.721 122.575C223.721 130.465 219.323 136.862 213.899 136.862C208.474 136.862 204.076 130.465 204.076 122.575C204.076 114.684 208.474 108.287 213.899 108.287C219.323 108.287 223.721 114.684 223.721 122.575" fill="#FFFCFA"/>
<path fill-rule="evenodd" clip-rule="evenodd" d="M223.721 122.575C223.721 130.465 219.323 136.862 213.899 136.862C208.474 136.862 204.076 130.465 204.076 122.575C204.076 114.684 208.474 108.287 213.899 108.287C219.323 108.287 223.721 114.684 223.721 122.575Z" stroke="#D2E2FA" stroke-width="2"/>
<path fill-rule="evenodd" clip-rule="evenodd" d="M222.061 122.8C222.061 128.035 219.144 132.279 215.544 132.279C211.946 132.279 209.028 128.035 209.028 122.8C209.028 117.566 211.946 113.322 215.544 113.322C219.144 113.322 222.061 117.566 222.061 122.8" fill="#D6E5FC"/>
<path fill-rule="evenodd" clip-rule="evenodd" d="M213.475 116.221C213.475 116.869 212.95 117.394 212.302 117.394C211.654 117.394 211.129 116.869 211.129 116.221C211.129 115.574 211.654 115.048 212.302 115.048C212.95 115.048 213.475 115.574 213.475 116.221" fill="white"/>
<path fill-rule="evenodd" clip-rule="evenodd" d="M192.459 177.465C192.554 176.953 192.149 176.484 191.628 176.484H183.809H175.989C175.469 176.484 175.064 176.953 175.158 177.465C175.44 178.99 176.903 182.634 183.809 182.634C190.714 182.634 192.177 178.99 192.459 177.465" fill="white"/>
<path fill-rule="evenodd" clip-rule="evenodd" d="M192.459 177.465C192.554 176.953 192.149 176.484 191.628 176.484H183.809H175.989C175.469 176.484 175.064 176.953 175.158 177.465C175.44 178.99 176.903 182.634 183.809 182.634C190.714 182.634 192.177 178.99 192.459 177.465Z" stroke="#1B2143" stroke-width="0.5"/>
<path fill-rule="evenodd" clip-rule="evenodd" d="M163.542 122.575C163.542 130.465 159.145 136.862 153.72 136.862C148.295 136.862 143.897 130.465 143.897 122.575C143.897 114.684 148.295 108.287 153.72 108.287C159.145 108.287 163.542 114.684 163.542 122.575" fill="#FFFCFA"/>
<path fill-rule="evenodd" clip-rule="evenodd" d="M163.542 122.575C163.542 130.465 159.145 136.862 153.72 136.862C148.295 136.862 143.897 130.465 143.897 122.575C143.897 114.684 148.295 108.287 153.72 108.287C159.145 108.287 163.542 114.684 163.542 122.575Z" stroke="#D2E2FA" stroke-width="2"/>
<path fill-rule="evenodd" clip-rule="evenodd" d="M161.882 122.8C161.882 128.035 158.964 132.279 155.365 132.279C151.766 132.279 148.849 128.035 148.849 122.8C148.849 117.566 151.766 113.322 155.365 113.322C158.964 113.322 161.882 117.566 161.882 122.8" fill="#D6E5FC"/>
<path fill-rule="evenodd" clip-rule="evenodd" d="M153.297 116.221C153.297 116.869 152.771 117.394 152.124 117.394C151.476 117.394 150.95 116.869 150.95 116.221C150.95 115.574 151.476 115.048 152.124 115.048C152.771 115.048 153.297 115.574 153.297 116.221" fill="white"/>
<path fill-rule="evenodd" clip-rule="evenodd" d="M154.033 121.746C154.241 122.667 152.832 123.77 150.886 124.21C148.94 124.65 147.194 124.26 146.985 123.339C146.777 122.418 148.186 121.316 150.132 120.876C152.079 120.436 153.825 120.826 154.033 121.746" fill="#FFFCFA"/>
<path fill-rule="evenodd" clip-rule="evenodd" d="M213.424 121.746C213.632 122.667 212.223 123.77 210.277 124.21C208.331 124.65 206.584 124.26 206.376 123.339C206.168 122.418 207.577 121.316 209.523 120.876C211.469 120.436 213.216 120.826 213.424 121.746" fill="#FFFCFA"/>
<path fill-rule="evenodd" clip-rule="evenodd" d="M243.543 137.776C227.47 122.821 183.38 123 183.38 123C183.38 123 139.289 122.821 123.216 137.776C106.366 153.452 122.918 194.494 183.38 195.309C243.841 194.494 260.393 153.452 243.543 137.776" fill="#F2F8FF"/>
<rect x="211.454" y="144.05" width="6.5" height="9.5" rx="3.25" transform="rotate(-45 211.454 144.05)" fill="white" stroke="#D2E2FA" stroke-width="1.5"/>
<rect x="219.232" y="151.828" width="6.5" height="9.5" rx="3.25" transform="rotate(-45 219.232 151.828)" fill="white" stroke="#D2E2FA" stroke-width="1.5"/>
<rect x="225.949" y="139.454" width="6.5" height="9.5" rx="3.25" transform="rotate(45 225.949 139.454)" fill="white" stroke="#D2E2FA" stroke-width="1.5"/>
<rect x="218.171" y="147.232" width="6.5" height="9.5" rx="3.25" transform="rotate(45 218.171 147.232)" fill="white" stroke="#D2E2FA" stroke-width="1.5"/>
<rect x="216.403" y="149" width="6.5" height="6.5" transform="rotate(-45 216.403 149)" fill="white" stroke="#D2E2FA" stroke-width="1.5"/>
<path d="M171 172.261C171 172.261 184.5 160.064 197.519 172.261" stroke="#D2E2FA" stroke-width="3" stroke-linecap="round"/>
<path fill-rule="evenodd" clip-rule="evenodd" d="M247.672 143.001C249.664 160.61 230.358 185.316 184.75 185.932C135.851 185.272 117.188 156.921 122.592 139.313C107.548 155.703 124.672 194.979 183.809 195.777C238.876 195.034 257.514 160.925 247.672 143.001" fill="#ECF5FF"/>
<path d="M159.892 96C159.892 96 159.259 100.984 154.054 101.825C148.849 102.666 146.033 102.17 146.033 102.17" stroke="#D2E2FA" stroke-width="2.48154" stroke-linecap="round"/>
<path d="M206 96C206 96 206.632 100.984 211.838 101.825C217.043 102.666 219.858 102.17 219.858 102.17" stroke="#D2E2FA" stroke-width="2.48154" stroke-linecap="round"/>
<path fill-rule="evenodd" clip-rule="evenodd" d="M220.667 201.631C222.398 201.321 223.579 201.558 223.906 202.281C224.182 202.892 223.797 203.733 222.824 204.65L222.515 204.804L222.423 204.664C221.84 203.775 221.207 202.858 220.543 201.937L220.361 201.685L220.667 201.631Z" fill="#D8E9FF"/>
<path fill-rule="evenodd" clip-rule="evenodd" d="M207.158 193.246C209 192.83 210.868 192.343 212.71 191.798L212.772 191.78L212.914 191.832C217.118 192.262 222.664 200.411 223.734 202.043L223.722 202.041C223.107 201.375 220.392 201.735 217.407 203.082C215.68 203.861 214.176 204.891 213.384 205.838L213.108 206.193L212.914 205.689L212.897 205.647C210.346 199.406 207.763 194.798 207.032 193.534L206.899 193.305L207.158 193.246Z" fill="#E0EEFF"/>
<path fill-rule="evenodd" clip-rule="evenodd" d="M227.902 218.144C227.768 214.101 225.492 209.313 222.57 204.777L222.515 204.804L222.422 204.663C221.848 203.789 221.226 202.886 220.574 201.981C219.622 202.206 218.534 202.573 217.406 203.082C215.679 203.861 214.176 204.891 213.384 205.838L213.111 206.189C215.128 211.252 217.067 217.283 217.981 223.418L218.157 223.46C218.157 223.46 223.22 225.558 225.749 223.781C226.741 223.085 228.017 221.579 227.902 218.144" fill="#F8FBFF"/>
<path fill-rule="evenodd" clip-rule="evenodd" d="M215.123 204.346C214.398 204.836 213.794 205.348 213.384 205.838L213.111 206.188C215.128 211.252 217.067 217.283 217.981 223.419L218.157 223.46C218.157 223.46 219.353 223.955 220.872 224.26C219.912 217.072 217.49 209.971 215.123 204.346" fill="#EFF5FD"/>
<path fill-rule="evenodd" clip-rule="evenodd" d="M145.462 138.705C146.332 138.904 146.994 139.688 146.887 140.575C146.776 141.492 146.511 142.275 145.32 143.229C143.187 145.073 137.874 147.64 136.356 144.676C134.174 140.416 140.299 137.524 145.462 138.705" fill="white"/>
<path fill-rule="evenodd" clip-rule="evenodd" d="M215.123 204.346C215.123 204.346 211.708 198.9 209.557 197.128C209.557 197.128 212.618 203.48 213.112 206.188C213.112 206.188 214.235 204.858 215.123 204.346" fill="#D8E9FF"/>
<path fill-rule="evenodd" clip-rule="evenodd" d="M199.338 215.885C199.338 215.885 185.608 228.852 166.156 230.187C166.156 230.187 178.526 230.941 190.73 224.457C193.301 223.091 197.812 220.271 199.338 215.885" fill="#D8E9FF"/>
<path fill-rule="evenodd" clip-rule="evenodd" d="M160.727 193.193C159.296 195.668 150.297 211.777 149.2 227.35L149.152 227.35C148.091 227.955 147.521 228.598 147.521 229.265C147.521 230.085 148.387 230.87 149.964 231.592C149.653 231.247 149.488 230.893 149.488 230.533C149.488 229.846 150.077 229.183 151.169 228.56H151.219C152.312 213.031 161.032 196.987 162.928 193.661C162.185 193.512 161.451 193.356 160.727 193.193" fill="#D8E9FF"/>
<path fill-rule="evenodd" clip-rule="evenodd" d="M153.5 192.5C153.5 192.5 141.4 201.539 141.4 204.192C141.4 206.845 139.748 207.424 141.4 212.392C143.053 217.36 145.178 217.826 146.223 217.826C147.267 217.826 149.858 219.208 153.617 218.952C157.376 218.697 159.096 219.446 161.553 218.697C164.01 217.947 168.903 216.748 169.402 215.885C169.902 215.022 170.212 214.316 171 212.392C171.787 210.468 171 209.944 171 208.589C171 207.233 170.428 206.735 169.915 205.77C169.402 204.804 169.617 204.704 167.54 204.346C165.464 203.988 164.709 203.657 163.589 203.596C162.468 203.535 162.271 203.535 161.553 203.535C160.835 203.535 160.107 203.919 159.505 203.535C158.903 203.151 158.742 203.535 158.059 203.535C157.376 203.535 158.014 203.919 156.507 203.535C155 203.151 160.835 195.251 160.835 195.251L153.5 192.5Z" fill="white"/>
<path fill-rule="evenodd" clip-rule="evenodd" d="M155.576 204.192H163.434C164.202 204.192 164.203 203 163.434 203H155.576C154.809 203 154.807 204.192 155.576 204.192" fill="#D2E2FA"/>
<path d="M155.576 204.192H163.434C164.202 204.192 164.203 203 163.434 203H155.576C154.809 203 154.807 204.192 155.576 204.192" stroke="#D2E2FA"/>
<path fill-rule="evenodd" clip-rule="evenodd" d="M170.674 209.598C171.303 212.632 169.135 215.513 166.49 216.848C165.804 217.194 166.407 218.223 167.091 217.878C170.206 216.306 172.603 212.806 171.824 209.281C171.052 205.786 167.236 202.788 163.68 203C162.923 203.045 162.916 204.27 163.68 204.192C166.783 204.192 170.047 206.569 170.674 209.598Z" fill="#D2E2FA" stroke="#D2E2FA"/>
<path fill-rule="evenodd" clip-rule="evenodd" d="M140.027 209.86C140.295 213.584 142.447 217.273 146.036 218.571C151.478 220.539 162.562 218.874 166.807 217.998C167.558 217.843 167.24 216.694 166.49 216.848C162.617 217.647 151.478 219.344 146.75 217.583C143.237 216.275 141.094 212.553 141.195 208.9C141.376 202.303 148.322 195.005 154.39 193.292C155.127 193.084 154.814 191.933 154.073 192.142C147.268 194.063 139.486 202.322 140.027 209.86Z" fill="#D2E2FA" stroke="#D2E2FA"/>
<path fill-rule="evenodd" clip-rule="evenodd" d="M161.25 194.127C159.408 193.711 156.4 192.291 154.558 191.746L154.496 191.728L154.354 191.78C147.799 192.5 143.152 199.44 142.081 201.072C142.081 201.072 147.776 200.09 150.76 201.438C152.487 202.217 153.725 203.21 155.223 204.735C157.919 200.273 160.645 195.679 161.376 194.415L161.509 194.186L161.25 194.127Z" fill="#E0EEFF"/>
<path fill-rule="evenodd" clip-rule="evenodd" d="M243.973 138.243C227.9 123.289 183.809 123.468 183.809 123.468C183.809 123.468 139.719 123.289 123.645 138.243C106.796 153.92 123.348 194.961 183.809 195.777C244.271 194.961 260.823 153.92 243.973 138.243Z" stroke="#D2E2FA" stroke-width="2"/>
<path fill-rule="evenodd" clip-rule="evenodd" d="M183.809 235.116C179.644 235.116 175.613 235.015 171.787 234.826C172.423 238.644 177.562 241.62 183.809 241.62C190.056 241.62 195.195 238.644 195.831 234.826C192.005 235.015 187.974 235.116 183.809 235.116" fill="#EFF5FD"/>
<path fill-rule="evenodd" clip-rule="evenodd" d="M218.36 227.291C219.489 227.913 220.098 228.576 220.098 229.265C220.098 232.821 203.851 235.703 183.809 235.703C163.767 235.703 147.52 232.821 147.52 229.265C147.52 228.598 148.09 227.955 149.151 227.35" fill="#D8E9FF"/>
<path d="M218.36 227.291C219.489 227.913 220.098 228.576 220.098 229.265C220.098 232.821 203.851 235.703 183.809 235.703C163.767 235.703 147.52 232.821 147.52 229.265C147.52 228.598 148.09 227.955 149.151 227.35" stroke="#D2E2FA" stroke-width="0.5"/>
<path d="M161.509 204.192C161.509 204.192 167.846 209.025 167.54 217.123" stroke="#D2E2FA" stroke-width="1.4" stroke-linecap="round"/>
<path d="M166.157 209.924C166.157 209.924 165.613 214.247 163.109 217.123" stroke="#D2E2FA" stroke-width="1.4" stroke-linecap="round"/>
<path d="M156.008 204.192C156.008 204.192 162.112 208.362 159.505 217.826" stroke="#D2E2FA" stroke-width="1.4" stroke-linecap="round"/>
<path d="M153.72 203.596C153.72 203.596 155.224 209.005 152.971 213.646" stroke="#D2E2FA" stroke-width="1.4" stroke-linecap="round"/>
<path d="M147.52 200.727C147.52 200.727 152.978 211.635 152.97 217.947" stroke="#D2E2FA" stroke-width="1.4" stroke-linecap="round"/>
<path d="M150.509 208.138C150.509 208.138 148.822 214.213 144.87 216.154" stroke="#D2E2FA" stroke-width="1.4" stroke-linecap="round"/>
</g>
<defs>
<linearGradient id="paint0_linear" x1="130.455" y1="219.427" x2="130.455" y2="277.455" gradientUnits="userSpaceOnUse">
<stop stop-color="#EBF3FF"/>
<stop offset="1" stop-color="#F8FBFF" stop-opacity="0.01"/>
</linearGradient>
<linearGradient id="paint1_linear" x1="213.953" y1="250.55" x2="221.127" y2="228.255" gradientUnits="userSpaceOnUse">
<stop stop-color="#B4CCED"/>
<stop offset="1" stop-color="#F1F7FF" stop-opacity="0.01"/>
<stop offset="1" stop-color="#F1F7FF" stop-opacity="0.01"/>
</linearGradient>
</defs>
</svg>
