<svg width="400" height="320" viewBox="0 0 400 320" fill="none" xmlns="http://www.w3.org/2000/svg">
<mask id="mask0" mask-type="alpha" maskUnits="userSpaceOnUse" x="0" y="0" width="400" height="320">
<rect width="400" height="320" fill="#C4C4C4"/>
</mask>
<g mask="url(#mask0)">
<path fill-rule="evenodd" clip-rule="evenodd" d="M204.5 368C330.145 368 432 328.825 432 280.5C432 232.175 330.145 193 204.5 193C78.8552 193 -23 232.175 -23 280.5C-23 328.825 78.8552 368 204.5 368Z" fill="url(#paint0_linear)"/>
<path opacity="0.6" fill-rule="evenodd" clip-rule="evenodd" d="M229.401 223L159 207.458L240.5 176L313.568 207.458C313.568 207.458 287.572 208.461 272.604 211.224C257.636 213.988 229.401 223 229.401 223Z" fill="url(#paint1_linear)"/>
<path fill-rule="evenodd" clip-rule="evenodd" d="M210.198 76.8478C191.689 79.8688 179.754 60.6208 179.754 60.6208C179.754 60.6208 174.567 91.1268 195.317 105.456" fill="#F8FBFF"/>
<path d="M210.198 76.8478C191.689 79.8688 179.754 60.6208 179.754 60.6208C179.754 60.6208 174.567 91.1268 195.317 105.456" stroke="#D2E2FA" stroke-width="2"/>
<path d="M184 90.286C184 90.286 193.945 87.8286 200 76.286" stroke="#D2E2FA" stroke-width="1.1"/>
<path d="M181 84.286C181 84.286 188.776 84.286 195 75.286" stroke="#D2E2FA" stroke-width="1.1"/>
<path d="M180 78.286C180 78.286 185.784 77.97 190 72.286" stroke="#D2E2FA" stroke-width="1.1"/>
<path d="M180 71.286C180 71.286 182.767 71.3094 187 68.286" stroke="#D2E2FA" stroke-width="1.1"/>
<path fill-rule="evenodd" clip-rule="evenodd" d="M310.116 158.173C320.99 160.772 327.02 155.034 329.282 152.142C329.857 151.407 329.538 150.328 328.658 150.021C328.658 150.021 305.606 143.048 304.708 136.578" fill="#F2F8FF"/>
<path d="M310.116 158.173C320.99 160.772 327.02 155.034 329.282 152.142C329.857 151.407 329.538 150.328 328.658 150.021C328.658 150.021 305.606 143.048 304.708 136.578" stroke="#D4E2FA" stroke-width="2"/>
<mask id="mask1" mask-type="alpha" maskUnits="userSpaceOnUse" x="311" y="150" width="19" height="9">
<path fill-rule="evenodd" clip-rule="evenodd" d="M311.173 150.366H329.604V158.875H311.173V150.366Z" fill="white"/>
</mask>
<g mask="url(#mask1)">
<path fill-rule="evenodd" clip-rule="evenodd" d="M326.504 151.547C326.504 151.547 329.301 149.109 329.597 151.238C329.892 153.368 322.008 160.855 311.173 158.379C311.173 158.379 317.86 158.777 326.504 151.547" fill="#D4E2FA"/>
</g>
<path fill-rule="evenodd" clip-rule="evenodd" d="M275.756 203.738C298.626 204.925 316.668 210.263 317.575 203.009C317.003 195.587 305.793 190.55 299.141 188.286" fill="#F8FBFF"/>
<path d="M275.756 203.738C298.626 204.925 316.668 210.263 317.575 203.009C317.003 195.587 305.793 190.55 299.141 188.286" stroke="#D2E2FA" stroke-width="2"/>
<path fill-rule="evenodd" clip-rule="evenodd" d="M301.864 189.001C295.681 196.133 292.446 198.698 283.771 202.405C285.234 202.481 286.663 202.569 288.058 202.664C295.268 198.458 296.989 195.747 301.944 189.028C301.918 189.019 301.89 189.009 301.864 189.001Z" fill="#EFF3FA"/>
<mask id="mask2" mask-type="alpha" maskUnits="userSpaceOnUse" x="166" y="135" width="151" height="80">
<path fill-rule="evenodd" clip-rule="evenodd" d="M167.611 179.129C166.079 183.759 166.687 188.741 170.744 194.25C176.553 202.136 186.494 207.221 195.623 210.16C218.307 217.465 243.632 215.56 266.496 210.201C281.772 206.622 297.033 199.498 306.763 186.764C314.946 176.054 321.07 156.456 311.647 144.463C304.805 135.754 289.589 135.944 279.552 135.866C278.842 135.861 278.134 135.858 277.418 135.858C242.721 135.859 202.632 142.449 176.537 166.852C172.393 170.728 169.054 174.772 167.611 179.129Z" fill="white"/>
</mask>
<g mask="url(#mask2)">
<path fill-rule="evenodd" clip-rule="evenodd" d="M165.771 177.271C164.239 181.901 164.847 186.883 168.904 192.392C174.713 200.278 184.654 205.363 193.783 208.302C216.467 215.607 241.792 213.702 264.656 208.343C279.932 204.764 295.193 197.64 304.923 184.906C313.106 174.196 319.23 154.598 309.807 142.605C302.965 133.896 287.749 134.086 277.712 134.008C277.002 134.003 276.294 134 275.578 134C240.881 134.001 200.792 140.591 174.697 164.994C170.553 168.87 167.214 172.914 165.771 177.271Z" fill="#F2F8FF" stroke="#D2E2FA" stroke-width="2"/>
</g>
<mask id="mask3" mask-type="alpha" maskUnits="userSpaceOnUse" x="78" y="161" width="160" height="63">
<path fill-rule="evenodd" clip-rule="evenodd" d="M103.15 195.912C103.15 195.912 80.328 194.517 78 209.187V209.187C79.935 215.958 86.444 215.027 103.15 214.023V214.023C132.929 212.235 173.349 213.576 184.422 215.237V215.237C192.146 216.396 213.756 223.24 226.958 223.286V223.286H227.22C230.968 223.273 234.015 222.696 235.837 221.262V221.262C243.488 215.239 226.791 203.097 177.526 187.637V187.637C177.381 187.591 177.237 187.543 177.094 187.493V187.493C170.421 185.159 167.205 177.568 169.942 171.05V171.05L172.978 163.823C172.978 163.823 164.493 161.742 153.358 161.742V161.742C135.299 161.742 110.268 167.214 103.15 195.912" fill="white"/>
</mask>
<g mask="url(#mask3)">
<path fill-rule="evenodd" clip-rule="evenodd" d="M78 209.187C79.935 215.958 86.444 215.027 103.15 214.023C132.929 212.235 173.349 213.576 184.422 215.237C192.146 216.396 213.756 223.24 226.958 223.286H227.22C230.968 223.273 234.015 222.696 235.837 221.262C243.488 215.239 226.791 203.097 177.526 187.637C177.381 187.591 177.237 187.543 177.094 187.493C170.421 185.159 167.205 177.568 169.942 171.05L172.978 163.823C172.978 163.823 164.493 161.742 153.358 161.742C135.299 161.742 110.268 167.214 103.15 195.912C103.15 195.912 80.328 194.517 78 209.187Z" fill="#F8FBFF" stroke="#D2E2FA" stroke-width="4"/>
</g>
<path fill-rule="evenodd" clip-rule="evenodd" d="M177.093 187.493C165.987 182.844 167.206 177.568 169.943 171.05L172.977 163.824C172.977 163.824 138.368 155.336 117.212 172.645C130.987 174.844 105.987 213.844 117.998 213.397C145.038 212.669 175.138 213.656 184.422 215.238C187.987 215.844 190.183 195.95 196.507 193.992C196.987 193.844 184.498 189.825 177.526 187.637C177.38 187.591 177.233 187.552 177.093 187.493Z" fill="#E0EEFF" stroke="#D2E2FA" stroke-width="2" stroke-linecap="round" stroke-linejoin="round"/>
<mask id="mask4" mask-type="alpha" maskUnits="userSpaceOnUse" x="164" y="52" width="143" height="128">
<path fill-rule="evenodd" clip-rule="evenodd" d="M210.91 52C210.91 52 216.049 68.142 187.197 98.847V98.847C153.219 135.009 167.071 178.953 167.071 178.953V178.953C167.071 178.953 167.204 179.19 167.471 179.577V179.577C167.515 179.427 168.151 178.868 168.172 178.713V178.713C168.75 174.438 172.393 170.728 176.537 166.852V166.852C203.17 141.946 244.375 135.595 279.552 135.866V135.866C287.642 135.928 299.096 135.82 306.819 140.337V140.337C292.838 58.243 210.91 52 210.91 52Z" fill="white"/>
</mask>
<g mask="url(#mask4)">
<path fill-rule="evenodd" clip-rule="evenodd" d="M210.91 52C210.91 52 216.049 68.142 187.197 98.847V98.847C153.219 135.009 167.071 178.953 167.071 178.953V178.953C167.071 178.953 167.204 179.19 167.471 179.577V179.577C167.515 179.427 168.151 178.868 168.172 178.713V178.713C168.75 174.438 172.393 170.728 176.537 166.852V166.852C203.17 141.946 244.375 135.595 279.552 135.866V135.866C287.642 135.928 299.096 135.82 306.819 140.337V140.337C292.838 58.243 210.91 52 210.91 52Z" fill="#F8FBFF" stroke="#D2E2FA" stroke-width="4"/>
</g>
<path fill-rule="evenodd" clip-rule="evenodd" d="M276.692 149.092C276.019 149.376 275.598 150.102 275.811 150.8C276.031 151.523 276.357 152.116 277.451 152.714C279.431 153.894 284.075 155.203 284.875 152.6C286.024 148.859 280.68 147.405 276.692 149.092" fill="white"/>
<path fill-rule="evenodd" clip-rule="evenodd" d="M214.944 160.032C215.673 160.068 216.318 160.605 216.358 161.334C216.399 162.089 216.298 162.758 215.475 163.694C214.021 165.483 210.11 168.308 208.465 166.138C206.099 163.02 210.619 159.818 214.944 160.032" fill="white"/>
<path fill-rule="evenodd" clip-rule="evenodd" d="M303.328 185.376C304.642 142.127 280.684 114.998 280.684 114.998L269 117.908C269 117.908 292.724 152.786 291.5 196C295.824 193.207 299.9 189.256 303.328 185.376Z" fill="white"/>
<path fill-rule="evenodd" clip-rule="evenodd" d="M178.723 187.905C177.932 192.512 165.785 199.23 162.114 199.214C161.182 199.21 160.532 198.291 160.835 197.409C160.835 197.409 166.911 184.863 166.45 176.564C167.067 173.049 179.514 183.298 178.723 187.905Z" fill="#F2F8FF" stroke="#D4E2FA" stroke-width="2"/>
<path fill-rule="evenodd" clip-rule="evenodd" d="M163.369 196.664C163.369 196.664 159.723 197.349 161.211 198.9C162.699 200.452 173.46 198.901 178.23 188.862C178.23 188.862 174.399 194.358 163.369 196.664" fill="#D4E2FA"/>
<path fill-rule="evenodd" clip-rule="evenodd" d="M228.717 216.759C225.241 218.233 207.577 217.828 191.221 214.666C209.383 219.564 232.348 224.311 235.23 219.026C236.97 215.836 232.03 212.93 231.669 212.93C231.669 212.93 232.194 215.286 228.717 216.759Z" fill="#EFF3FA"/>
<path fill-rule="evenodd" clip-rule="evenodd" d="M212.792 200.363C205.219 169.534 215.461 131.386 215.461 131.386L200.845 136.764C200.845 136.764 190.841 163.201 196.507 193.993C202.662 196.207 208.079 198.334 212.792 200.363" fill="white"/>
<path fill-rule="evenodd" clip-rule="evenodd" d="M196.468 142.707C203.851 138.295 211.543 135.023 219.867 132.859C223.602 131.888 222.019 126.099 218.273 127.073C209.485 129.358 201.234 132.87 193.44 137.526C190.128 139.504 193.142 144.694 196.468 142.707" fill="#D2E2FA"/>
<path fill-rule="evenodd" clip-rule="evenodd" d="M264.383 125.281C271.021 122.734 277.909 121.273 284.99 121.098C286.611 121.058 287.99 119.748 287.99 118.098C287.99 116.503 286.617 115.058 284.99 115.098C277.398 115.285 269.876 116.776 262.787 119.495C261.276 120.075 260.233 121.514 260.693 123.185C261.09 124.632 262.862 125.864 264.383 125.281" fill="#D2E2FA"/>
<path fill-rule="evenodd" clip-rule="evenodd" d="M263.322 189.943C264.588 195.965 262.72 201.455 259.152 202.204C255.584 202.954 251.665 198.68 250.4 192.659C249.134 186.636 251.002 181.147 254.57 180.397C258.138 179.648 262.057 183.922 263.322 189.943" fill="#E0EEFF"/>
<path fill-rule="evenodd" clip-rule="evenodd" d="M256.862 191.301C254.47 191.804 252.845 194.436 252.413 197.929C254.215 200.951 256.761 202.707 259.153 202.204C261.544 201.702 263.17 199.071 263.602 195.577C261.8 192.554 259.253 190.799 256.862 191.301" fill="white"/>
<path fill-rule="evenodd" clip-rule="evenodd" d="M263.322 189.943C264.588 195.965 262.72 201.455 259.152 202.204C255.584 202.954 251.665 198.68 250.4 192.659C249.134 186.636 251.002 181.147 254.57 180.397C258.138 179.648 262.057 183.922 263.322 189.943Z" stroke="#D2E2FA" stroke-width="2"/>
<path fill-rule="evenodd" clip-rule="evenodd" d="M202.974 118.885C203.661 119.894 206.797 118.957 209.979 116.792C213.163 114.627 215.186 112.053 214.5 111.045C213.813 110.035 210.677 110.973 207.494 113.138C204.311 115.303 202.287 117.876 202.974 118.885" fill="#D6E5FC"/>
<path fill-rule="evenodd" clip-rule="evenodd" d="M272.592 106.294C272.384 107.372 269.457 107.712 266.057 107.054C262.655 106.396 260.068 104.988 260.277 103.91C260.485 102.832 263.411 102.491 266.813 103.149C270.213 103.808 272.801 105.216 272.592 106.294" fill="#D6E5FC"/>
<path d="M118 94.9371C136.795 102.338 142.745 93.7276 143.583 90.0218C144.42 86.3159 141.353 83 137.836 83C134.318 83 129.636 85.4671 131.42 91.0334C133.257 97.2455 148.724 99.9886 151.203 97.392" stroke="#D2E2FA" stroke-width="2" stroke-linecap="round"/>
<path fill-rule="evenodd" clip-rule="evenodd" d="M78 87.0927C78.149 87.3437 91.4436 87.4012 99.9612 99.7171C99.9612 99.7171 110.395 80.3514 121.922 77.1737C121.922 77.1737 97.7414 75.2572 92.9313 67C92.9313 67 94.4855 81.9927 78 87.0927Z" fill="#F8FBFF" stroke="#D2E2FA" stroke-width="2" stroke-linejoin="round"/>
<path d="M96.0078 77.3572L103.643 81.503" stroke="#D2E2FA" stroke-width="2" stroke-linecap="round"/>
<path d="M94.0205 81.0369L98.8685 83.6582" stroke="#D2E2FA" stroke-width="2" stroke-linecap="round"/>
<path d="M91.9346 84.1588L101.611 89.3752" stroke="#D2E2FA" stroke-width="2" stroke-linecap="round"/>
</g>
<defs>
<linearGradient id="paint0_linear" x1="104.49" y1="180.308" x2="104.49" y2="257.239" gradientUnits="userSpaceOnUse">
<stop stop-color="#EBF3FF"/>
<stop offset="1" stop-color="#F8FBFF" stop-opacity="0.01"/>
</linearGradient>
<linearGradient id="paint1_linear" x1="530.17" y1="249.181" x2="516.064" y2="126.224" gradientUnits="userSpaceOnUse">
<stop stop-color="#B4CCED"/>
<stop offset="1" stop-color="#F1F7FF" stop-opacity="0.01"/>
<stop offset="1" stop-color="#F1F7FF" stop-opacity="0.01"/>
</linearGradient>
</defs>
</svg>
