<svg width="400" height="320" viewBox="0 0 400 320" fill="none" xmlns="http://www.w3.org/2000/svg">
<mask id="mask0" mask-type="alpha" maskUnits="userSpaceOnUse" x="0" y="0" width="400" height="320">
<rect width="400" height="320" fill="#C4C4C4"/>
</mask>
<g mask="url(#mask0)">
<path fill-rule="evenodd" clip-rule="evenodd" d="M204.5 329C297.56 329 373 298.555 373 261C373 223.445 297.56 193 204.5 193C111.44 193 36 223.445 36 261C36 298.555 111.44 329 204.5 329Z" fill="url(#paint0_linear)" fill-opacity="0.5"/>
<path fill-rule="evenodd" clip-rule="evenodd" d="M229.401 223L159 207.458L240.5 176L313.568 207.458C313.568 207.458 287.572 208.461 272.604 211.224C257.636 213.988 229.401 223 229.401 223Z" fill="url(#paint1_linear)"/>
<path fill-rule="evenodd" clip-rule="evenodd" d="M210.198 76.8478C191.689 79.8688 179.754 60.6208 179.754 60.6208C179.754 60.6208 174.567 91.1268 195.317 105.456" fill="#20242E"/>
<path d="M210.198 76.8478C191.689 79.8688 179.754 60.6208 179.754 60.6208C179.754 60.6208 174.567 91.1268 195.317 105.456" stroke="#808DA8" stroke-width="2"/>
<path d="M184 90.286C184 90.286 193.945 87.8286 200 76.286" stroke="#808DA8" stroke-width="1.1"/>
<path d="M181 84.286C181 84.286 188.776 84.286 195 75.286" stroke="#808DA8" stroke-width="1.1"/>
<path d="M180 78.286C180 78.286 185.784 77.97 190 72.286" stroke="#808DA8" stroke-width="1.1"/>
<path d="M180 71.286C180 71.286 182.767 71.3094 187 68.286" stroke="#808DA8" stroke-width="1.1"/>
<path fill-rule="evenodd" clip-rule="evenodd" d="M310.116 158.173C320.99 160.772 327.02 155.034 329.282 152.142C329.857 151.407 329.538 150.328 328.658 150.021C328.658 150.021 305.606 143.048 304.708 136.578" fill="#697896"/>
<path d="M310.116 158.173C320.99 160.772 327.02 155.034 329.282 152.142C329.857 151.407 329.538 150.328 328.658 150.021C328.658 150.021 305.606 143.048 304.708 136.578" stroke="#808DA8" stroke-width="2"/>
<mask id="mask1" mask-type="alpha" maskUnits="userSpaceOnUse" x="311" y="150" width="19" height="9">
<path fill-rule="evenodd" clip-rule="evenodd" d="M311.173 150.366H329.604V158.875H311.173V150.366Z" fill="white"/>
</mask>
<g mask="url(#mask1)">
<path fill-rule="evenodd" clip-rule="evenodd" d="M326.504 151.547C326.504 151.547 329.301 149.109 329.597 151.238C329.892 153.368 322.008 160.855 311.173 158.379C311.173 158.379 317.86 158.777 326.504 151.547" fill="#808DA8"/>
</g>
<path fill-rule="evenodd" clip-rule="evenodd" d="M275.756 203.738C298.626 204.925 316.668 210.263 317.575 203.009C317.003 195.587 305.793 190.55 299.141 188.286" fill="#697896"/>
<path d="M275.756 203.738C298.626 204.925 316.668 210.263 317.575 203.009C317.003 195.587 305.793 190.55 299.141 188.286" stroke="#808DA8" stroke-width="2"/>
<path fill-rule="evenodd" clip-rule="evenodd" d="M301.864 189.001C295.681 196.133 292.446 198.698 283.771 202.405C285.234 202.481 286.663 202.569 288.058 202.664C295.268 198.458 296.989 195.747 301.944 189.028C301.918 189.019 301.89 189.009 301.864 189.001Z" fill="#586581"/>
<path fill-rule="evenodd" clip-rule="evenodd" d="M165.771 177.271C164.239 181.901 164.847 186.883 168.904 192.392C174.713 200.278 184.654 205.363 193.783 208.302C216.467 215.607 241.792 213.702 264.656 208.343C279.932 204.764 295.193 197.64 304.923 184.906C313.106 174.196 319.23 154.598 309.807 142.605C302.965 133.896 287.749 134.086 277.712 134.008C277.002 134.003 276.294 134 275.578 134C240.881 134.001 200.792 140.591 174.697 164.994C170.553 168.87 167.214 172.914 165.771 177.271Z" fill="#616F8C" stroke="#20242E" stroke-width="2"/>
<path fill-rule="evenodd" clip-rule="evenodd" d="M78 208.445C79.935 215.216 86.444 214.285 103.15 213.281C132.929 211.493 173.349 212.834 184.422 214.495C192.146 215.654 213.756 222.498 226.958 222.544H227.22C230.968 222.531 234.015 221.954 235.837 220.52C243.488 214.497 226.791 202.355 177.526 186.895C177.381 186.849 177.237 186.801 177.094 186.751C170.421 184.417 167.205 176.826 169.942 170.308L172.978 163.081C172.978 163.081 164.493 161 153.358 161C135.299 161 110.268 166.472 103.15 195.17C103.15 195.17 80.328 193.775 78 208.445Z" fill="#697896" stroke="#808DA8" stroke-width="2"/>
<path fill-rule="evenodd" clip-rule="evenodd" d="M229.497 216.829C226.02 218.303 208.356 218.162 192 215C210.162 219.898 232.438 224.904 236 219.5C238 216 233.861 212.5 233.5 212.5C233.5 212.5 232.974 215.356 229.497 216.829Z" fill="#586581"/>
<path fill-rule="evenodd" clip-rule="evenodd" d="M177.093 186.692C165.987 181.826 167.206 176.305 169.943 169.483L172.977 161.921C172.977 161.921 138.368 153.037 117.212 171.152C130.987 173.454 105.987 214.27 117.998 213.802C145.038 213.04 174 214.5 183.5 215.5C201 217 190.183 195.543 196.507 193.493C196.987 193.338 184.498 189.132 177.526 186.842C177.38 186.794 177.233 186.753 177.093 186.692Z" fill="#525F7A" stroke="#20242E" stroke-width="2" stroke-linecap="round" stroke-linejoin="round"/>
<path fill-rule="evenodd" clip-rule="evenodd" d="M210.91 52C210.91 52 216.049 68.142 187.197 98.847C153.219 135.009 167.071 178.953 167.071 178.953C167.071 178.953 167.204 179.19 167.471 179.577C167.515 179.427 168.151 178.868 168.172 178.713C168.75 174.438 172.393 170.728 176.537 166.852C203.17 141.946 244.375 135.595 279.552 135.866C287.642 135.928 299.096 135.82 306.819 140.337C292.838 58.243 210.91 52 210.91 52Z" fill="#697896" stroke="#808DA8" stroke-width="2"/>
<path d="M167.07 178.953C167.07 178.953 167.203 179.19 167.47 179.577C167.514 179.427 168.15 178.868 168.171 178.713C168.749 174.438 172.392 170.728 176.536 166.852C203.169 141.946 244.374 135.595 279.551 135.866C287.641 135.928 299.095 135.82 306.818 140.337L309 141.7" stroke="#20242E" stroke-width="2"/>
<path fill-rule="evenodd" clip-rule="evenodd" d="M276.692 149.092C276.019 149.376 275.598 150.102 275.811 150.8C276.031 151.523 276.357 152.116 277.451 152.714C279.431 153.894 284.075 155.203 284.875 152.6C286.024 148.859 280.68 147.405 276.692 149.092" fill="#20242E"/>
<path fill-rule="evenodd" clip-rule="evenodd" d="M214.944 160.033C215.673 160.069 216.318 160.606 216.358 161.335C216.399 162.09 216.298 162.759 215.475 163.695C214.021 165.484 210.11 168.309 208.465 166.139C206.099 163.021 210.619 159.819 214.944 160.033" fill="#20242E"/>
<path fill-rule="evenodd" clip-rule="evenodd" d="M303.328 185.376C304.642 142.127 281 116 281 116L269 117.908C269 117.908 292.724 152.786 291.5 196C295.824 193.207 299.9 189.256 303.328 185.376Z" fill="#8592AD"/>
<path fill-rule="evenodd" clip-rule="evenodd" d="M177.963 184.061C177.172 188.668 165.025 195.386 161.354 195.37C160.422 195.366 159.772 194.447 160.075 193.565C160.075 193.565 166.151 181.019 165.69 172.72C166.307 169.205 178.754 179.454 177.963 184.061Z" fill="#697896" stroke="#808DA8" stroke-width="2"/>
<path fill-rule="evenodd" clip-rule="evenodd" d="M162.61 192.82C162.61 192.82 158.964 193.505 160.452 195.056C161.94 196.608 172.701 195.057 177.471 185.018C177.471 185.018 173.64 190.514 162.61 192.82" fill="#808DA8"/>
<path fill-rule="evenodd" clip-rule="evenodd" d="M212.792 200.363C205.219 169.534 215.461 131.386 215.461 131.386L200.845 136.764C200.845 136.764 190.841 163.201 196.507 193.993C202.662 196.207 208.079 198.334 212.792 200.363" fill="#8592AD"/>
<path fill-rule="evenodd" clip-rule="evenodd" d="M196.468 142.707C203.851 138.295 211.543 135.023 219.867 132.859C223.602 131.888 222.019 126.099 218.273 127.073C209.485 129.358 201.234 132.87 193.44 137.526C190.128 139.504 193.142 144.694 196.468 142.707" fill="#20242E"/>
<path fill-rule="evenodd" clip-rule="evenodd" d="M264.383 125.281C271.021 122.734 277.909 121.273 284.99 121.098C286.611 121.058 287.99 119.748 287.99 118.098C287.99 116.503 286.617 115.058 284.99 115.098C277.398 115.285 269.876 116.776 262.787 119.495C261.276 120.075 260.233 121.514 260.693 123.185C261.09 124.632 262.862 125.864 264.383 125.281" fill="#20242E"/>
<path fill-rule="evenodd" clip-rule="evenodd" d="M263.322 189.944C264.588 195.966 262.72 201.456 259.152 202.205C255.584 202.955 251.665 198.681 250.4 192.66C249.134 186.637 251.002 181.148 254.57 180.398C258.138 179.649 262.057 183.923 263.322 189.944" fill="#697896"/>
<path fill-rule="evenodd" clip-rule="evenodd" d="M256.862 191.301C254.47 191.804 252.845 194.436 252.413 197.929C254.215 200.951 256.761 202.707 259.153 202.204C261.544 201.702 263.17 199.071 263.602 195.577C261.8 192.554 259.253 190.799 256.862 191.301" fill="#808DA8"/>
<path fill-rule="evenodd" clip-rule="evenodd" d="M263.322 189.944C264.588 195.966 262.72 201.456 259.152 202.205C255.584 202.955 251.665 198.681 250.4 192.66C249.134 186.637 251.002 181.148 254.57 180.398C258.138 179.649 262.057 183.923 263.322 189.944Z" stroke="#20242E" stroke-width="2"/>
<path fill-rule="evenodd" clip-rule="evenodd" d="M202.974 118.885C203.661 119.894 206.797 118.957 209.979 116.792C213.163 114.627 215.186 112.053 214.5 111.045C213.813 110.035 210.677 110.973 207.494 113.138C204.311 115.303 202.287 117.876 202.974 118.885" fill="#20242E"/>
<path fill-rule="evenodd" clip-rule="evenodd" d="M272.592 106.294C272.384 107.372 269.457 107.712 266.057 107.054C262.655 106.396 260.068 104.988 260.277 103.91C260.485 102.832 263.411 102.491 266.813 103.149C270.213 103.808 272.801 105.216 272.592 106.294" fill="#20242E"/>
<path d="M118 94.9371C136.795 102.338 142.745 93.7276 143.583 90.0218C144.42 86.3159 141.353 83 137.836 83C134.318 83 129.636 85.4671 131.42 91.0334C133.257 97.2455 148.724 99.9886 151.203 97.392" stroke="#808DA8" stroke-width="2" stroke-linecap="round"/>
<path fill-rule="evenodd" clip-rule="evenodd" d="M78 87.0927C78.149 87.3437 91.4436 87.4012 99.9612 99.7171C99.9612 99.7171 110.395 80.3514 121.922 77.1737C121.922 77.1737 97.7414 75.2572 92.9313 67C92.9313 67 94.4855 81.9927 78 87.0927Z" fill="#697896" stroke="#808DA8" stroke-width="2" stroke-linejoin="round"/>
<path d="M96.0078 77.3572L103.643 81.503" stroke="#20242E" stroke-width="2" stroke-linecap="round"/>
<path d="M94.0205 81.0369L98.8685 83.6582" stroke="#20242E" stroke-width="2" stroke-linecap="round"/>
<path d="M91.9346 84.1588L101.611 89.3752" stroke="#20242E" stroke-width="2" stroke-linecap="round"/>
</g>
<defs>
<linearGradient id="paint0_linear" x1="205" y1="156" x2="205" y2="271" gradientUnits="userSpaceOnUse">
<stop stop-color="#5D6E90"/>
<stop offset="1" stop-color="#20242E" stop-opacity="0"/>
</linearGradient>
<linearGradient id="paint1_linear" x1="256.5" y1="172.5" x2="349.529" y2="141.69" gradientUnits="userSpaceOnUse">
<stop stop-color="#323A4B"/>
<stop offset="1" stop-color="#20242E" stop-opacity="0"/>
</linearGradient>
</defs>
</svg>
