<?xml version="1.0" encoding="utf-8"?>
<!-- Generator: Adobe Illustrator 22.1.0, SVG Export Plug-In . SVG Version: 6.00 Build 0)  -->
<svg xmlns="http://www.w3.org/2000/svg" xmlns:xlink="http://www.w3.org/1999/xlink" x="0px" y="0px"
	 viewBox="0 0 1920 1070.2" style="enable-background:new 0 0 1920 1070.2;" xml:space="preserve">
<style type="text/css">
	.error-404-0{fill:#F0F1F3;}
	.error-404-1{fill:#00C671;}
	.error-404-2{opacity:0.2;}
	.error-404-3{fill:#191C3C;}
	.error-404-4{opacity:8.000000e-02;fill:#F5F7F9;}
	.error-404-5{fill:#1E2022;}
	.error-404-6{fill:#D4DBE3;}
	.error-404-7{fill:#00C9A7;}
	.error-404-8{fill:none;stroke:#191C3C;stroke-width:1.5917;stroke-miterlimit:10;}
	.error-404-9{fill:#7783A0;}
	.error-404-10{fill:#3A3C4E;}
	.error-404-11{fill:#FEC55E;}
	.error-404-12{fill:#DB3F32;}
	.error-404-13{opacity:0.3;fill:#191C3C;}
	.error-404-14{fill:#DE4437;}
	.error-404-15{fill:url(#error404_1_);}
	.error-404-16{fill:url(#error404_2_);}
	.error-404-17{fill:url(#error404_3_);}
	.error-404-18{fill:#FFFFFF;}
	.error-404-19{opacity:0.3;}
	.error-404-20{fill:#41446B;}
	.error-404-21{opacity:0.1;fill:#191C3C;}
	.error-404-22{fill:#D8ED96;}
	.error-404-23{fill:#D4DEE8;}
	.error-404-24{fill:url(#error404_4_);}
	.error-404-25{fill:#D1D3DB;}
	.error-404-26{fill:#377DFF;}
	.error-404-27{fill:#2D1582;}
	.error-404-28{fill:#474963;}
	.error-404-29{fill:#4D5068;}
	.error-404-30{opacity:0.17;fill:#191C3C;}
	.error-404-31{opacity:0.11;}
	.error-404-32{fill:#DAE1E9;}
	.error-404-33{fill:none;stroke:#DAE1E9;stroke-width:1.92;stroke-miterlimit:10;}
	.error-404-34{fill:none;stroke:#DAE1E9;stroke-width:5.76;stroke-miterlimit:10;}
	.error-404-35{fill:#E4EDF7;}
	.error-404-36{opacity:0.3;fill:#DAE1E9;}
	.error-404-37{fill:none;stroke:#DAE1E9;stroke-width:1.8812;stroke-miterlimit:10;}
	.error-404-38{opacity:0.2;fill:#AAB2BA;}
	.error-404-39{fill:#FED17E;}
	.error-404-40{fill:#E0A546;}
	.error-404-41{fill:#19A0FF;}
	.error-404-42{fill:#DD9C3E;}
	.error-404-43{fill:#BF9447;}
	.error-404-44{opacity:0.1;fill:#3A3C4E;}
	.error-404-45{opacity:0.2;fill:#3A3C4E;}
</style>
<rect class="error-404-0" width="1920" height="1070.2"/>


<path class="error-404-6" d="M0,878.6c0,0,247.7-143.2,566.4-66.4s489.6-78.7,604.8-145.9s493.4-357.9,748.8-175.1v578.7H0V878.6z"/>

<path class="error-404-23" d="M0,840.6c0,0,400.5-248.4,678.9-141.7s654.3,60.3,654.3,60.3v311H0V840.6z"/>

<linearGradient id="error404_4_" gradientUnits="userSpaceOnUse" x1="0" y1="642.7708" x2="1920" y2="642.7708" gradientTransform="matrix(1 0 0 1 0 149.508)">
	<stop  offset="5.250566e-07" style="stop-color:#DAE1E9"/>
	<stop  offset="1" style="stop-color:#F0F1F3"/>
</linearGradient>

<path class="error-404-24" d="M0,654.7c0,0,255.7,194.7,743,19.2c108.3-39.2,215.4-81.4,324.1-119.8c67.2-23.8,139-41.1,210.8-39.2
	c70.7,2.3,139.8,21.9,204.7,49.5c36.9,16.1,72.6,34.9,107.1,55.3c33,19.6,64.1,43,99.8,58c31.9,13.1,65.3,21.1,99.5,25.3
	c25,3.1,50.3,4.6,75.3,5.4c18.4,0.4,37.2,0.4,55.7,0.4v361H0V654.7z"/>
</svg>
