<svg width="436" height="180" viewBox="0 0 436 180" fill="none" xmlns="http://www.w3.org/2000/svg">
<circle opacity="0.3" cx="4" cy="27" r="4" fill="#4C88FF"/>
<circle opacity="0.3" cx="151" cy="176" r="4" fill="#E58F9F"/>
<g opacity="0.4">
<path d="M404.87 0.00854492L414.079 17.4475L436 27.5174L426.661 9.84252L404.87 0.00854492Z" fill="url(#paint0_linear)"/>
<path d="M423.489 11.4806L412.333 6.44585L416.783 14.8729L428.006 20.0284L423.489 11.4806Z" fill="white" fill-opacity="0.2" stroke="#56659F" stroke-width="2"/>
<path d="M421.161 46.0001L436 27.5174L414.079 17.4422L399.24 36.035L421.161 46.0001Z" fill="url(#paint1_linear)"/>
<path d="M399.339 36.07L414.082 17.4533L404.864 0L390 18.5L399.339 36.07Z" fill="url(#paint2_linear)"/>
</g>
<g opacity="0.4">
<path d="M30.0313 116.009L39.3408 133.447L61.5 143.517L52.0594 125.843L30.0313 116.009Z" fill="url(#paint3_linear)"/>
<path d="M48.8642 127.484L37.5612 122.438L42.0626 130.87L53.4328 136.037L48.8642 127.484Z" fill="white" fill-opacity="0.2" stroke="#56659F" stroke-width="2"/>
<path d="M46.5 162L61.5 143.517L39.3408 133.442L24.3408 152.035L46.5 162Z" fill="url(#paint4_linear)"/>
<path d="M24.4406 152.07L39.3433 133.453L30.026 116L15 134.5L24.4406 152.07Z" fill="url(#paint5_linear)"/>
</g>
<defs>
<linearGradient id="paint0_linear" x1="418.69" y1="6.23017" x2="425.765" y2="23.005" gradientUnits="userSpaceOnUse">
<stop stop-color="#112169"/>
<stop offset="1" stop-color="#323F7D"/>
</linearGradient>
<linearGradient id="paint1_linear" x1="436" y1="17.6286" x2="429.948" y2="45.5952" gradientUnits="userSpaceOnUse">
<stop stop-color="#1F306F"/>
<stop offset="1" stop-color="#414E8A"/>
</linearGradient>
<linearGradient id="paint2_linear" x1="409.319" y1="8.68207" x2="398.399" y2="19.2634" gradientUnits="userSpaceOnUse">
<stop stop-color="#47558D"/>
<stop offset="1" stop-color="#203272"/>
</linearGradient>
<linearGradient id="paint3_linear" x1="44.0021" y1="122.23" x2="51.0235" y2="139.059" gradientUnits="userSpaceOnUse">
<stop stop-color="#112169"/>
<stop offset="1" stop-color="#323F7D"/>
</linearGradient>
<linearGradient id="paint4_linear" x1="61.5" y1="133.629" x2="55.5076" y2="161.622" gradientUnits="userSpaceOnUse">
<stop stop-color="#1F306F"/>
<stop offset="1" stop-color="#414E8A"/>
</linearGradient>
<linearGradient id="paint5_linear" x1="34.5286" y1="124.682" x2="23.6064" y2="135.381" gradientUnits="userSpaceOnUse">
<stop stop-color="#47558D"/>
<stop offset="1" stop-color="#203272"/>
</linearGradient>
</defs>
</svg>
