<svg width="48" height="48" viewBox="0 0 48 48" fill="none" xmlns="http://www.w3.org/2000/svg">
<circle cx="24" cy="24" r="24" fill="#EBF1FF"/>
<path d="M26 19.3864C26 15.9404 24.3668 12.977 23.1245 12.0122C23.1194 12.009 23.0294 11.9572 23.037 12.0948C23.0372 12.0967 23.0355 12.0973 23.0355 12.0989C22.9321 18.7524 19.6251 20.5557 17.8069 22.9849C13.6112 28.5906 17.5133 34.7367 21.4868 35.8725C23.7102 36.5081 20.9733 34.7478 20.6208 31.03C20.1947 26.5363 26 23.1064 26 19.3864Z" fill="#151516"/>
<path d="M28.6038 22.0281C28.5245 22.8446 27.5603 24.5905 26.338 26.1938C22.1927 31.6324 24.555 34.2537 25.8834 35.6619C26.6546 36.4793 25.8834 35.6619 27.8111 34.8265C27.9624 34.7611 31.5726 33.0102 31.9637 29.0211C32.3422 25.1584 29.6591 22.7235 28.7041 22.016C28.6746 21.9986 28.6328 21.9867 28.6038 22.0281Z" fill="#3F7FFF"/>
</svg>
