<svg width="40" height="40" viewBox="0 0 40 40" fill="none" xmlns="http://www.w3.org/2000/svg">
<path fill-rule="evenodd" clip-rule="evenodd" d="M4.70357 9.45771L11.7601 13.532C12.23 13.7909 12.5232 14.2835 12.5267 14.82C12.5303 15.3564 12.2436 15.8529 11.7772 16.118C11.3108 16.383 10.7375 16.3753 10.2784 16.0977L3.22186 12.024C2.52076 11.6114 2.28345 10.7107 2.69022 10.0061C3.09699 9.30162 3.9957 9.05682 4.70357 9.45771ZM30.0004 2.67943C30.7091 3.08861 30.9518 3.99476 30.5427 4.70343L26.4684 11.76C26.2095 12.2298 25.7169 12.5231 25.1804 12.5266C24.644 12.5301 24.1475 12.2434 23.8825 11.777C23.6174 11.3106 23.6251 10.7374 23.9027 10.2783L27.977 3.22171C28.3862 2.51342 29.2919 2.27068 30.0004 2.67943V2.67943ZM29.7215 23.9023L36.7781 27.9766C37.2479 28.2355 37.5411 28.7281 37.5446 29.2646C37.5482 29.801 37.2615 30.2975 36.7951 30.5625C36.3287 30.8276 35.7554 30.8198 35.2963 30.5423L28.2398 26.468C27.7699 26.2091 27.4767 25.7165 27.4732 25.18C27.4696 24.6436 27.7564 24.1471 28.2228 23.882C28.6892 23.617 29.2624 23.6247 29.7215 23.9023V23.9023ZM15.556 27.6983C16.2646 28.1074 16.5074 29.0136 16.0982 29.7223L12.024 36.7788C11.7616 37.242 11.271 37.5289 10.7387 37.5304C10.2064 37.5318 9.71424 37.2477 9.44937 36.7859C9.18451 36.3242 9.18768 35.7559 9.45767 35.2971L13.532 28.2405C13.7283 27.9001 14.052 27.6517 14.4316 27.55C14.8112 27.4483 15.2157 27.5016 15.556 27.6983ZM12.0241 3.22171L16.0984 10.2783C16.3759 10.7374 16.3837 11.3106 16.1186 11.777C15.8535 12.2434 15.3571 12.5301 14.8206 12.5266C14.2842 12.5231 13.7915 12.2298 13.5326 11.76L9.45778 4.70342C9.0569 3.99554 9.3017 3.09684 10.0062 2.69007C10.7107 2.28329 11.6114 2.52061 12.0241 3.22171ZM37.3203 9.99999C37.5168 10.3402 37.57 10.7446 37.4683 11.124C37.3666 11.5035 37.1183 11.827 36.7781 12.0234L29.7215 16.0977C29.2624 16.3753 28.6892 16.383 28.2228 16.1179C27.7564 15.8529 27.4696 15.3564 27.4732 14.82C27.4767 14.2835 27.7699 13.7909 28.2398 13.532L35.2963 9.45771C36.005 9.04857 36.9112 9.29136 37.3203 9.99999V9.99999ZM26.4684 28.2405L30.5427 35.2971C30.8203 35.7562 30.828 36.3294 30.5629 36.7958C30.2979 37.2622 29.8014 37.5489 29.265 37.5454C28.7285 37.5419 28.2359 37.2487 27.977 36.7788L23.9027 29.7222C23.6251 29.2632 23.6174 28.6899 23.8825 28.2235C24.1475 27.7571 24.644 27.4704 25.1804 27.4739C25.7169 27.4775 26.2095 27.7707 26.4684 28.2405V28.2405ZM12.302 24.4446C12.4984 24.7848 12.5517 25.1891 12.45 25.5686C12.3483 25.9481 12.1 26.2716 11.7597 26.468L4.70313 30.5423C3.99656 30.9316 3.10837 30.6842 2.70492 29.9856C2.30148 29.287 2.53105 28.394 3.22141 27.9766L10.278 23.9023C10.9866 23.4932 11.8928 23.7359 12.302 24.4446ZM1.14286 18.5177H9.96457C10.5958 18.5177 11.1074 19.0294 11.1074 19.6606V20.3394C11.1074 20.9706 10.5958 21.4823 9.96457 21.4823H1.14286C0.511675 21.4823 0 20.9706 0 20.3394V19.6606C0 19.0294 0.511675 18.5177 1.14286 18.5177V18.5177ZM30.0357 18.5177H38.8568C39.488 18.5177 39.9997 19.0294 39.9997 19.6606V20.3394C39.9997 20.9706 39.488 21.4823 38.8568 21.4823H30.0357C29.4045 21.4823 28.8928 20.9706 28.8928 20.3394V19.6606C28.8928 19.0294 29.4045 18.5177 30.0357 18.5177ZM19.6609 28.8931H20.3398C20.971 28.8931 21.4826 29.4048 21.4826 30.036V38.8571C21.4826 39.4883 20.971 40 20.3398 40H19.6609C19.0297 40 18.5181 39.4883 18.5181 38.8571V30.036C18.5181 29.4048 19.0297 28.8931 19.6609 28.8931ZM19.6609 0H20.3398C20.971 0 21.4826 0.511675 21.4826 1.14286V9.96457C21.4826 10.5958 20.971 11.1074 20.3398 11.1074H19.6609C19.0297 11.1074 18.5181 10.5958 18.5181 9.96457V1.14286C18.5181 0.511675 19.0297 0 19.6609 0Z" fill="url(#paint0_angular)"/>
<defs>
<radialGradient id="paint0_angular" cx="0" cy="0" r="1" gradientUnits="userSpaceOnUse" gradientTransform="translate(19.9998 20) scale(19.9998 20)">
<stop offset="0.374616" stop-color="#3F7FFF"/>
<stop offset="0.377922" stop-color="white" stop-opacity="0.01"/>
</radialGradient>
</defs>
</svg>
