<svg width="60" height="24" viewBox="0 0 60 24" fill="none" xmlns="http://www.w3.org/2000/svg">
<rect width="60" height="24" rx="4" fill="#F8F9FA"/>
<path d="M35.824 6.16V9.424H33.496V14.632H34.336V10.192H38.14V14.584H38.98V9.424H36.676V6.16H35.824ZM38.56 6.424C38.272 7.132 37.9 7.84 37.42 8.56L38.14 8.944C38.62 8.248 39.004 7.516 39.292 6.772L38.56 6.424ZM33.988 6.556L33.244 6.916C33.628 7.504 34 8.176 34.36 8.92L35.068 8.56C34.732 7.84 34.372 7.168 33.988 6.556ZM35.764 10.876V12.196C35.74 13.288 35.524 14.176 35.128 14.86C34.696 15.52 33.952 16.048 32.872 16.444L33.34 17.176C34.48 16.768 35.296 16.18 35.8 15.424C36.304 14.62 36.58 13.54 36.616 12.196V10.876H35.764ZM36.952 14.548L36.52 15.196C37.408 15.7 38.272 16.384 39.112 17.248L39.592 16.504C38.788 15.736 37.912 15.076 36.952 14.548ZM29.968 6.22C29.656 7.66 29.152 8.98 28.456 10.168L29.164 10.612C29.56 9.94 29.908 9.196 30.208 8.38H32.62V7.564H30.484C30.592 7.18 30.7 6.796 30.796 6.388L29.968 6.22ZM29.656 9.976V10.756H30.376V12.244H28.804V13.048H30.376V15.748C30.376 15.916 30.256 16.048 30.04 16.144L30.388 16.888C31.348 16.6 32.2 16.24 32.932 15.808L32.788 15.04C32.248 15.376 31.72 15.652 31.204 15.844V13.048H32.764V12.244H31.204V10.756H32.38V9.976H29.656ZM42.484 9.76V10.576H45.628V15.808C45.508 15.784 45.388 15.748 45.28 15.712C44.416 15.436 43.696 14.788 43.12 13.756C43.336 13.132 43.528 12.448 43.672 11.704L42.832 11.56C42.424 13.624 41.656 15.268 40.504 16.492L41.056 17.176C41.74 16.48 42.316 15.616 42.784 14.584C43.276 15.364 43.924 15.94 44.716 16.312C45.772 16.756 47.5 16.984 49.924 16.984H51.268L51.424 16.12C50.776 16.168 50.152 16.192 49.54 16.192C48.34 16.18 47.332 16.108 46.492 15.988V13.504H50.068V12.688H46.492V10.576H49.54V9.76H42.484ZM50.908 7.42H46.552C46.384 6.928 46.192 6.484 46 6.088L45.076 6.232C45.292 6.592 45.496 6.988 45.676 7.42H41.092V10.036H41.932V8.212H50.068V9.976H50.908V7.42Z" fill="#5F6A7F"/>
<path fill-rule="evenodd" clip-rule="evenodd" d="M14.9999 5.40002C13.0117 5.40002 11.3999 7.0118 11.3999 9.00002V10H10C9.44772 10 9 10.4477 9 11V17C9 17.5523 9.44772 18 10 18H20C20.5523 18 21 17.5523 21 17V11C21 10.4477 20.5523 10 20 10H18.5999V9.00002C18.5999 7.0118 16.9881 5.40002 14.9999 5.40002ZM17.3999 10V9.00002C17.3999 7.67454 16.3254 6.60002 14.9999 6.60002C13.6744 6.60002 12.5999 7.67454 12.5999 9.00002V10H17.3999ZM10.2 11.2V16.8H19.8V11.2H10.2ZM14.3999 13.1C14.3999 12.7686 14.6685 12.5 14.9999 12.5C15.3313 12.5 15.5999 12.7686 15.5999 13.1V14.9C15.5999 15.2314 15.3313 15.5 14.9999 15.5C14.6685 15.5 14.3999 15.2314 14.3999 14.9V13.1Z" fill="#838A97"/>
</svg>
