<svg width="75" height="24" viewBox="0 0 75 24" fill="none" xmlns="http://www.w3.org/2000/svg">
<rect width="75" height="24" rx="4" fill="#2F374E"/>
<path d="M30.1211 15.0801H34.1641V16H28.9902V7.46875H30.1211V15.0801ZM34.9902 12.7715C34.9902 12.1504 35.1113 11.5918 35.3535 11.0957C35.5996 10.5996 35.9395 10.2168 36.373 9.94727C36.8105 9.67773 37.3086 9.54297 37.8672 9.54297C38.7305 9.54297 39.4277 9.8418 39.959 10.4395C40.4941 11.0371 40.7617 11.832 40.7617 12.8242V12.9004C40.7617 13.5176 40.6426 14.0723 40.4043 14.5645C40.1699 15.0527 39.832 15.4336 39.3906 15.707C38.9531 15.9805 38.4492 16.1172 37.8789 16.1172C37.0195 16.1172 36.3223 15.8184 35.7871 15.2207C35.2559 14.623 34.9902 13.832 34.9902 12.8477V12.7715ZM36.0801 12.9004C36.0801 13.6035 36.2422 14.168 36.5664 14.5938C36.8945 15.0195 37.332 15.2324 37.8789 15.2324C38.4297 15.2324 38.8672 15.0176 39.1914 14.5879C39.5156 14.1543 39.6777 13.5488 39.6777 12.7715C39.6777 12.0762 39.5117 11.5137 39.1797 11.084C38.8516 10.6504 38.4141 10.4336 37.8672 10.4336C37.332 10.4336 36.9004 10.6465 36.5723 11.0723C36.2441 11.498 36.0801 12.1074 36.0801 12.9004ZM44.6641 15.2324C45.0508 15.2324 45.3887 15.1152 45.6777 14.8809C45.9668 14.6465 46.127 14.3535 46.1582 14.002H47.1836C47.1641 14.3652 47.0391 14.7109 46.8086 15.0391C46.5781 15.3672 46.2695 15.6289 45.8828 15.8242C45.5 16.0195 45.0938 16.1172 44.6641 16.1172C43.8008 16.1172 43.1133 15.8301 42.6016 15.2559C42.0938 14.6777 41.8398 13.8887 41.8398 12.8887V12.707C41.8398 12.0898 41.9531 11.541 42.1797 11.0605C42.4062 10.5801 42.7305 10.207 43.1523 9.94141C43.5781 9.67578 44.0801 9.54297 44.6582 9.54297C45.3691 9.54297 45.959 9.75586 46.4277 10.1816C46.9004 10.6074 47.1523 11.1602 47.1836 11.8398H46.1582C46.127 11.4297 45.9707 11.0938 45.6895 10.832C45.4121 10.5664 45.0684 10.4336 44.6582 10.4336C44.1074 10.4336 43.6797 10.6328 43.375 11.0312C43.0742 11.4258 42.9238 11.998 42.9238 12.748V12.9531C42.9238 13.6836 43.0742 14.2461 43.375 14.6406C43.6758 15.0352 44.1055 15.2324 44.6641 15.2324ZM50.1719 13.0645L49.4922 13.7734V16H48.4082V7H49.4922V12.4434L50.0723 11.7461L52.0469 9.66016H53.3652L50.8984 12.3086L53.6523 16H52.3809L50.1719 13.0645ZM56.998 16.1172C56.1387 16.1172 55.4395 15.8359 54.9004 15.2734C54.3613 14.707 54.0918 13.9512 54.0918 13.0059V12.8066C54.0918 12.1777 54.2109 11.6172 54.4492 11.125C54.6914 10.6289 55.0273 10.2422 55.457 9.96484C55.8906 9.68359 56.3594 9.54297 56.8633 9.54297C57.6875 9.54297 58.3281 9.81445 58.7852 10.3574C59.2422 10.9004 59.4707 11.6777 59.4707 12.6895V13.1406H55.1758C55.1914 13.7656 55.373 14.2715 55.7207 14.6582C56.0723 15.041 56.5176 15.2324 57.0566 15.2324C57.4395 15.2324 57.7637 15.1543 58.0293 14.998C58.2949 14.8418 58.5273 14.6348 58.7266 14.377L59.3887 14.8926C58.8574 15.709 58.0605 16.1172 56.998 16.1172ZM56.8633 10.4336C56.4258 10.4336 56.0586 10.5938 55.7617 10.9141C55.4648 11.2305 55.2812 11.6758 55.2109 12.25H58.3867V12.168C58.3555 11.6172 58.207 11.1914 57.9414 10.8906C57.6758 10.5859 57.3164 10.4336 56.8633 10.4336ZM60.4668 12.7773C60.4668 11.8047 60.6973 11.0234 61.1582 10.4336C61.6191 9.83984 62.2227 9.54297 62.9688 9.54297C63.7109 9.54297 64.2988 9.79688 64.7324 10.3047V7H65.8164V16H64.8203L64.7676 15.3203C64.334 15.8516 63.7305 16.1172 62.957 16.1172C62.2227 16.1172 61.623 15.8164 61.1582 15.2148C60.6973 14.6133 60.4668 13.8281 60.4668 12.8594V12.7773ZM61.5508 12.9004C61.5508 13.6191 61.6992 14.1816 61.9961 14.5879C62.293 14.9941 62.7031 15.1973 63.2266 15.1973C63.9141 15.1973 64.416 14.8887 64.7324 14.2715V11.3594C64.4082 10.7617 63.9102 10.4629 63.2383 10.4629C62.707 10.4629 62.293 10.668 61.9961 11.0781C61.6992 11.4883 61.5508 12.0957 61.5508 12.9004Z" fill="#CBD2DA"/>
<path fill-rule="evenodd" clip-rule="evenodd" d="M14.9999 5.39999C13.0117 5.39999 11.3999 7.01177 11.3999 8.99999V9.99999H12.5999V8.99999C12.5999 7.67451 13.6744 6.59999 14.9999 6.59999C16.3254 6.59999 17.3999 7.67451 17.3999 8.99999V9.99999H18.5999V8.99999C18.5999 7.01177 16.9881 5.39999 14.9999 5.39999ZM10.2 11.2V16.8H19.8V11.2H10.2ZM10 10C9.44772 10 9 10.4477 9 11V17C9 17.5523 9.44772 18 10 18H20C20.5523 18 21 17.5523 21 17V11C21 10.4477 20.5523 10 20 10H10ZM14.3999 13.1C14.3999 12.7686 14.6685 12.5 14.9999 12.5C15.3313 12.5 15.5999 12.7686 15.5999 13.1V14.9C15.5999 15.2314 15.3313 15.5 14.9999 15.5C14.6685 15.5 14.3999 15.2314 14.3999 14.9V13.1Z" fill="#CBD2DA"/>
</svg>
