<svg width="48" height="48" viewBox="0 0 48 48" fill="none" xmlns="http://www.w3.org/2000/svg">
<circle cx="24" cy="24" r="24" fill="#EBF1FF"/>
<path d="M24 32.7136C19.2202 32.7136 15.23 31.7153 14.2409 30.3819C14.0871 30.5893 14 30.804 14 31.0252C14 32.6682 18.4772 34 24 34C29.5228 34 34 32.6681 34 31.0252C34 30.804 33.9129 30.5894 33.7591 30.3819C32.77 31.7153 28.7796 32.7136 24 32.7136ZM24 21.3366C29.5228 21.3366 34 19.6941 34 17.6682C34 15.6423 29.5228 14 24 14C18.4772 14 14 15.6423 14 17.6683C14 19.6943 18.4772 21.3366 24 21.3366ZM17.5847 23.7857V22.5C14.9051 21.6918 14.9017 21.3906 14.2409 20.5C14.0871 20.7074 14 20.9222 14 21.1433C14 22.3141 14.2794 22.886 17.5847 23.7857ZM30.4153 22.5V23.7857C33.7206 23.3003 34 22.314 34 21.1433C34 20.9222 33.9129 20.7073 33.7591 20.5C33.0984 21.3906 33.0948 22.1061 30.4153 22.5ZM30.4153 25.6862V26.9717C33.7206 26.4863 34 25.5001 34 24.3293C34 24.1082 33.9129 23.8934 33.7591 23.686C33.0984 24.5767 33.0948 25.2921 30.4153 25.6862ZM17.5847 26.9717V25.6862C14.9051 24.8778 14.9017 24.5767 14.2409 23.686C14.0871 23.8934 14 24.1082 14 24.3293C14 25.5001 14.2794 26.072 17.5847 26.9717ZM17.5847 30.1377V28.852C14.9051 28.0437 14.9017 27.7426 14.2409 26.852C14.0871 27.0593 14 27.2741 14 27.4952C14 28.666 14.2794 29.6523 17.5847 30.1377ZM30.4153 28.852V30.1377C33.7206 29.6523 34 28.666 34 27.4952C34 27.2741 33.9129 27.0593 33.7591 26.852C33.0984 27.7426 33.0948 28.458 30.4153 28.852Z" fill="#151516"/>
<path d="M17.5847 23.7857V22.5C14.9051 21.6918 14.9017 21.3906 14.2409 20.5C14.0871 20.7074 14 20.9222 14 21.1433C14 22.3141 14.2794 22.886 17.5847 23.7857ZM30.4153 22.5V23.7857C33.7206 23.3003 34 22.314 34 21.1433C34 20.9222 33.9129 20.7073 33.7591 20.5C33.0984 21.3906 33.0948 22.1061 30.4153 22.5ZM30.4153 25.6862V26.9717C33.7206 26.4863 34 25.5001 34 24.3293C34 24.1082 33.9129 23.8934 33.7591 23.686C33.0984 24.5767 33.0948 25.2921 30.4153 25.6862ZM17.5847 26.9717V25.6862C14.9051 24.8778 14.9017 24.5767 14.2409 23.686C14.0871 23.8934 14 24.1082 14 24.3293C14 25.5001 14.2794 26.072 17.5847 26.9717ZM17.5847 30.1377V28.852C14.9051 28.0437 14.9017 27.7426 14.2409 26.852C14.0871 27.0593 14 27.2741 14 27.4952C14 28.666 14.2794 29.6523 17.5847 30.1377ZM30.4153 28.852V30.1377C33.7206 29.6523 34 28.666 34 27.4952C34 27.2741 33.9129 27.0593 33.7591 26.852C33.0984 27.7426 33.0948 28.458 30.4153 28.852Z" fill="#5F6A7F"/>
<path d="M23.9807 24.75C24.0024 24.7508 24.5215 24.78 25.0774 25.281C25.4032 25.5735 25.9306 25.5735 26.2556 25.281C26.5815 24.9878 26.5815 24.513 26.2556 24.2198C25.7532 23.7675 25.244 23.529 24.8332 23.4008V23.25C24.8332 22.836 24.4607 22.5 23.9999 22.5C23.5399 22.5 23.1666 22.836 23.1666 23.25V23.3888C22.1991 23.6993 21.5 24.5243 21.5 25.5C21.5 27.2108 22.9391 27.5348 23.7982 27.7283C24.7274 27.9375 24.8332 28.0163 24.8332 28.5C24.8332 28.914 24.4599 29.25 24.0199 29.2508C23.9982 29.25 23.4783 29.2208 22.9224 28.7198C22.5975 28.4273 22.07 28.4273 21.7442 28.7198C21.4192 29.013 21.4192 29.4878 21.7442 29.781C22.2475 30.2333 22.7566 30.4718 23.1666 30.6V30.75C23.1666 31.1648 23.5399 31.5 23.9999 31.5C24.4607 31.5 24.8332 31.1648 24.8332 30.75V30.612C25.8015 30.3015 26.4998 29.4765 26.4998 28.5C26.4998 26.79 25.0615 26.466 24.2024 26.2725C23.2733 26.0633 23.1666 25.9845 23.1666 25.5C23.1666 25.0868 23.5407 24.75 23.9807 24.75Z" fill="#135BEB"/>
</svg>
