<svg width="120" height="64" viewBox="0 0 120 64" fill="none" xmlns="http://www.w3.org/2000/svg">
<path d="M75.7826 43.0781C72.1376 38.1759 66.301 35 59.7228 35C53.048 35 47.1369 38.2698 43.5039 43.295" stroke="url(#paint0_linear)" stroke-width="6" stroke-linecap="round"/>
<g filter="url(#filter0_f)">
<path d="M75.7826 43.5781C72.1376 38.6759 66.301 35.5 59.7228 35.5C53.048 35.5 47.1369 38.7698 43.5039 43.795" stroke="#D1DFF1" stroke-width="0.8" stroke-linecap="round"/>
</g>
<path fill-rule="evenodd" clip-rule="evenodd" d="M89.9028 36.3669C83.3017 26.2388 72.042 20 59.723 20C56.1474 20 52.6385 20.5223 49.2794 21.539C48.0885 21.8995 47.2864 22.9337 47.1641 24.098C47.1516 24.2163 47.2124 24.3361 47.2736 24.4566C47.3231 24.5543 47.3729 24.6524 47.3843 24.7508C47.3926 24.823 47.5113 24.8192 47.6552 24.8146C47.8626 24.808 48.1224 24.7997 48.1806 25.0145C48.2337 25.211 48.137 25.3786 48.0543 25.5219C47.9838 25.6439 47.9236 25.7483 47.975 25.8377C48.0562 25.979 48.0017 26.111 47.951 26.2339C47.8963 26.3665 47.8459 26.4886 47.975 26.6005C48.0363 26.6537 48.1306 26.6806 48.2307 26.7092C48.3624 26.7468 48.5043 26.7873 48.5949 26.8944C48.7016 27.0204 48.8561 27.0364 48.9912 27.0504C49.058 27.0573 49.1201 27.0637 49.1692 27.0828C49.308 27.1366 49.328 27.2382 49.3462 27.3313C49.3659 27.4318 49.3837 27.5223 49.5472 27.5317C49.8894 27.5513 50.6705 27.3868 51.0176 27.2817C53.8146 26.4351 56.738 26 59.723 26C69.9922 26 79.3712 31.1967 84.8762 39.6431C85.7809 41.0311 87.6395 41.423 89.0276 40.5183C90.4156 39.6136 90.8075 37.755 89.9028 36.3669ZM43.0199 24.3184C42.6503 24.3695 42.1943 24.5464 41.8507 24.7432C36.857 27.6042 32.609 31.6305 29.4819 36.4613C28.5816 37.8522 28.9793 39.7096 30.3701 40.61C31.761 41.5103 33.6184 41.1126 34.5188 39.7218C37.1264 35.6934 40.6703 32.3345 44.8334 29.9493C44.8722 29.9271 44.9078 29.907 44.9406 29.8883C45.323 29.6716 45.3459 29.6586 45.9709 28.9317C46.3283 28.516 46.2424 27.9063 46.1405 27.5953C46.0981 27.466 45.9986 27.3895 45.8975 27.3119C45.78 27.2216 45.6603 27.1297 45.6254 26.9512C45.5985 26.8137 45.6419 26.6703 45.6851 26.5279C45.7404 26.3457 45.7951 26.1653 45.701 26.001C45.521 25.6868 45.3451 25.6217 45.1416 25.5464C45.0884 25.5268 45.0333 25.5064 44.9759 25.4807C44.8385 25.4194 44.6188 25.3856 44.3764 25.3484C44.3464 25.3438 44.3162 25.3391 44.2857 25.3344C44.1042 25.306 44.0123 25.1353 43.931 24.984C43.8686 24.868 43.8123 24.7634 43.7266 24.7432C43.5641 24.705 43.4796 24.603 43.4009 24.508C43.3068 24.3943 43.2209 24.2906 43.0199 24.3184Z" fill="url(#paint1_linear)"/>
<mask id="mask0" mask-type="alpha" maskUnits="userSpaceOnUse" x="29" y="20" width="62" height="22">
<path fill-rule="evenodd" clip-rule="evenodd" d="M89.9028 36.3669C83.3017 26.2388 72.042 20 59.723 20C56.1474 20 52.6385 20.5223 49.2794 21.539C48.0885 21.8995 47.2864 22.9337 47.1641 24.098C47.1516 24.2163 47.2124 24.3361 47.2736 24.4566C47.3231 24.5543 47.3729 24.6524 47.3843 24.7508C47.3926 24.823 47.5113 24.8192 47.6552 24.8146C47.8626 24.808 48.1224 24.7997 48.1806 25.0145C48.2337 25.211 48.137 25.3786 48.0543 25.5219C47.9838 25.6439 47.9236 25.7483 47.975 25.8377C48.0562 25.979 48.0017 26.111 47.951 26.2339C47.8963 26.3665 47.8459 26.4886 47.975 26.6005C48.0363 26.6537 48.1306 26.6806 48.2307 26.7092C48.3624 26.7468 48.5043 26.7873 48.5949 26.8944C48.7016 27.0204 48.8561 27.0364 48.9912 27.0504C49.058 27.0573 49.1201 27.0637 49.1692 27.0828C49.308 27.1366 49.328 27.2382 49.3462 27.3313C49.3659 27.4318 49.3837 27.5223 49.5472 27.5317C49.8894 27.5513 50.6705 27.3868 51.0176 27.2817C53.8146 26.4351 56.738 26 59.723 26C69.9922 26 79.3712 31.1967 84.8762 39.6431C85.7809 41.0311 87.6395 41.423 89.0276 40.5183C90.4156 39.6136 90.8075 37.755 89.9028 36.3669ZM43.0199 24.3184C42.6503 24.3695 42.1943 24.5464 41.8507 24.7432C36.857 27.6042 32.609 31.6305 29.4819 36.4613C28.5816 37.8522 28.9793 39.7096 30.3701 40.61C31.761 41.5103 33.6184 41.1126 34.5188 39.7218C37.1264 35.6934 40.6703 32.3345 44.8334 29.9493C44.8722 29.9271 44.9078 29.907 44.9406 29.8883C45.323 29.6716 45.3459 29.6586 45.9709 28.9317C46.3283 28.516 46.2424 27.9063 46.1405 27.5953C46.0981 27.466 45.9986 27.3895 45.8975 27.3119C45.78 27.2216 45.6603 27.1297 45.6254 26.9512C45.5985 26.8137 45.6419 26.6703 45.6851 26.5279C45.7404 26.3457 45.7951 26.1653 45.701 26.001C45.521 25.6868 45.3451 25.6217 45.1416 25.5464C45.0884 25.5268 45.0333 25.5064 44.9759 25.4807C44.8385 25.4194 44.6188 25.3856 44.3764 25.3484C44.3464 25.3438 44.3162 25.3391 44.2857 25.3344C44.1042 25.306 44.0123 25.1353 43.931 24.984C43.8686 24.868 43.8123 24.7634 43.7266 24.7432C43.5641 24.705 43.4796 24.603 43.4009 24.508C43.3068 24.3943 43.2209 24.2906 43.0199 24.3184Z" fill="white"/>
</mask>
<g mask="url(#mask0)">
<path fill-rule="evenodd" clip-rule="evenodd" d="M43.1224 24.3139C43.1224 24.3139 42.1141 24.4912 41.8504 24.7432C41.5868 24.9953 41.4057 25.5289 41.6085 25.8006C41.8112 26.0722 41.8513 25.9016 41.8947 26.2056C41.938 26.5096 41.5477 26.747 41.7952 27.1102C42.0427 27.4735 42.2774 27.2581 42.516 27.3595C42.7547 27.461 42.5682 27.5635 42.516 28.1001C42.4639 28.6367 43.0013 28.8099 43.3018 28.8099C43.6024 28.8099 44.3594 28.9885 44.4248 29.4548C44.4902 29.9211 45.3867 29.5922 45.3867 29.5922L46.7375 28.4731L46.6044 26.2056L45.6056 25.1603L44.0178 24.2526L43.1224 24.3139Z" fill="url(#paint2_linear)"/>
</g>
<g filter="url(#filter1_f)">
<path d="M50.1235 25.0002L50.0087 24.617L50.0087 24.617L50.1235 25.0002ZM87.7249 38.7866L88.06 38.5682L88.06 38.5682L87.7249 38.7866ZM87.6082 39.3401L87.8266 39.6752L87.8266 39.6752L87.6082 39.3401ZM87.0547 39.2234L86.7196 39.4418L86.7196 39.4418L87.0547 39.2234ZM50.3531 25.7666L50.4679 26.1497L50.4679 26.1497L50.3531 25.7666ZM49.8551 25.4982L49.472 25.613L49.472 25.613L49.8551 25.4982ZM43.3246 28.8186L43.5261 29.1641L43.5261 29.1641L43.3246 28.8186ZM43.4686 28.2715L43.8141 28.07L43.8141 28.07L43.4686 28.2715ZM32.3364 39.3089L32.6722 39.5262L32.6722 39.5262L32.3364 39.3089ZM31.7833 39.4273L31.5659 39.7631L31.5659 39.7631L31.7833 39.4273ZM31.6648 38.8742L32.0006 39.0915L32.0006 39.0915L31.6648 38.8742ZM42.9215 28.1275L43.123 28.473L43.123 28.473L42.9215 28.1275ZM59.7233 23.2C56.3478 23.2 53.0865 23.695 50.0087 24.617L50.2383 25.3834C53.2424 24.4835 56.4264 24 59.7233 24V23.2ZM88.06 38.5682C82.031 29.3178 71.5918 23.2 59.7233 23.2V24C71.3101 24 81.5022 29.9716 87.3898 39.005L88.06 38.5682ZM87.8266 39.6752C88.1968 39.434 88.3012 38.9383 88.06 38.5682L87.3898 39.005L87.3898 39.005L87.8266 39.6752ZM86.7196 39.4418C86.9608 39.812 87.4565 39.9164 87.8266 39.6752L87.3898 39.005L87.3898 39.005L86.7196 39.4418ZM59.7233 24.8C71.0284 24.8 80.9734 30.6253 86.7196 39.4418L87.3898 39.005C81.5022 29.9716 71.3101 24 59.7233 24V24.8ZM50.4679 26.1497C53.3983 25.2719 56.505 24.8 59.7233 24.8V24C56.4264 24 53.2424 24.4835 50.2383 25.3834L50.4679 26.1497ZM49.472 25.613C49.5988 26.0362 50.0446 26.2765 50.4679 26.1497L50.2383 25.3834L50.2383 25.3834L49.472 25.613ZM50.0087 24.617C49.5855 24.7438 49.3452 25.1897 49.472 25.613L50.2383 25.3834L50.2383 25.3834L50.0087 24.617ZM43.5261 29.1641C43.9077 28.9415 44.0367 28.4517 43.8141 28.07L43.123 28.473L43.123 28.473L43.5261 29.1641ZM32.6722 39.5262C35.4221 35.2782 39.1455 31.7187 43.5261 29.1641L43.123 28.473C38.6338 31.091 34.8185 34.7384 32.0006 39.0915L32.6722 39.5262ZM31.5659 39.7631C31.9368 40.0032 32.4321 39.8971 32.6722 39.5262L32.0006 39.0915L32.0006 39.0915L31.5659 39.7631ZM31.3291 38.6568C31.089 39.0277 31.195 39.523 31.5659 39.7631L32.0006 39.0915L32.0006 39.0915L31.3291 38.6568ZM42.72 27.782C38.1222 30.4633 34.215 34.1986 31.3291 38.6568L32.0006 39.0915C34.8185 34.7384 38.6338 31.091 43.123 28.473L42.72 27.782ZM43.8141 28.07C43.5915 27.6883 43.1017 27.5594 42.72 27.782L43.123 28.473L43.123 28.473L43.8141 28.07Z" fill="#D2DFF0"/>
</g>
<path fill-rule="evenodd" clip-rule="evenodd" d="M60 58C63.3137 58 66 55.3137 66 52C66 48.6863 63.3137 46 60 46C56.6863 46 54 48.6863 54 52C54 55.3137 56.6863 58 60 58Z" fill="url(#paint3_linear)"/>
<path fill-rule="evenodd" clip-rule="evenodd" d="M60 62C68.2843 62 75 60.6569 75 59C75 57.3431 68.2843 56 60 56C51.7157 56 45 57.3431 45 59C45 60.6569 51.7157 62 60 62Z" fill="url(#paint4_linear)"/>
<path fill-rule="evenodd" clip-rule="evenodd" d="M66 3.5C66 2.67157 66.6716 2 67.5 2H84.5C85.3284 2 86 2.67157 86 3.5C86 4.32843 85.3284 5 84.5 5H80.1689C79.9025 5.34549 79.6158 5.84645 79.6158 6.40233C79.6158 6.99495 79.9417 7.59452 80.2214 8H88.5C89.3284 8 90 8.67157 90 9.5C90 10.3284 89.3284 11 88.5 11H71.5C70.6716 11 70 10.3284 70 9.5C70 8.67157 70.6716 8 71.5 8H75.8784C76.1631 7.58508 76.5079 6.96611 76.5079 6.40233C76.5079 5.87999 76.2119 5.36292 75.942 5H67.5C66.6716 5 66 4.32843 66 3.5Z" fill="#F0F6FF"/>
<path fill-rule="evenodd" clip-rule="evenodd" d="M4 35C4 34.4477 4.44772 34 5 34H17C17.5523 34 18 34.4477 18 35C18 35.5523 17.5523 36 17 36H11H5C4.44772 36 4 35.5523 4 35ZM14.3388 38C14.2657 37.8163 14.2169 37.621 14.2169 37.4267C14.2169 36.6481 15 36.0131 15 36.0131L11 36C11 36 11.7831 36.7067 11.7831 37.4267C11.7831 37.6153 11.7294 37.8122 11.6501 38H8C7.44772 38 7 38.4477 7 39C7 39.5523 7.44772 40 8 40H20C20.5523 40 21 39.5523 21 39C21 38.4477 20.5523 38 20 38H14.3388Z" fill="#F0F6FF"/>
<defs>
<filter id="filter0_f" x="39.0261" y="31.0226" width="41.2336" height="17.2499" filterUnits="userSpaceOnUse" color-interpolation-filters="sRGB">
<feFlood flood-opacity="0" result="BackgroundImageFix"/>
<feBlend mode="normal" in="SourceGraphic" in2="BackgroundImageFix" result="shape"/>
<feGaussianBlur stdDeviation="2.03871" result="effect1_foregroundBlur"/>
</filter>
<filter id="filter1_f" x="27.1228" y="19.1225" width="65.1442" height="24.8465" filterUnits="userSpaceOnUse" color-interpolation-filters="sRGB">
<feFlood flood-opacity="0" result="BackgroundImageFix"/>
<feBlend mode="normal" in="SourceGraphic" in2="BackgroundImageFix" result="shape"/>
<feGaussianBlur stdDeviation="2.03871" result="effect1_foregroundBlur"/>
</filter>
<linearGradient id="paint0_linear" x1="38.5108" y1="32.4337" x2="38.5108" y2="43.295" gradientUnits="userSpaceOnUse">
<stop stop-color="#F3F8FF"/>
<stop offset="0.523992" stop-color="#DDE9FA"/>
<stop offset="1" stop-color="#F1F7FF"/>
</linearGradient>
<linearGradient id="paint1_linear" x1="19.5037" y1="13.4747" x2="19.5037" y2="41.0919" gradientUnits="userSpaceOnUse">
<stop stop-color="#F3F8FF"/>
<stop offset="0.523992" stop-color="#DDE9FA"/>
<stop offset="1" stop-color="#F1F7FF"/>
</linearGradient>
<linearGradient id="paint2_linear" x1="44.397" y1="24.4196" x2="41.5132" y2="26.4466" gradientUnits="userSpaceOnUse">
<stop stop-color="#DFEBFB"/>
<stop offset="1" stop-color="#BFD1E6"/>
</linearGradient>
<linearGradient id="paint3_linear" x1="52.6209" y1="49.1104" x2="57.3093" y2="59.3646" gradientUnits="userSpaceOnUse">
<stop stop-color="#F4F8FF"/>
<stop offset="0.61344" stop-color="#DDE9FA"/>
<stop offset="1" stop-color="#F2F7FF"/>
</linearGradient>
<linearGradient id="paint4_linear" x1="33.5979" y1="52.6987" x2="33.5979" y2="63.2596" gradientUnits="userSpaceOnUse">
<stop stop-color="#EBF3FF"/>
<stop offset="1" stop-color="#F8FBFF" stop-opacity="0.01"/>
</linearGradient>
</defs>
</svg>
