<svg width="120" height="64" viewBox="0 0 120 64" fill="none" xmlns="http://www.w3.org/2000/svg">
<path opacity="0.4" fill-rule="evenodd" clip-rule="evenodd" d="M60 62C68.2843 62 75 60.6569 75 59C75 57.3431 68.2843 56 60 56C51.7157 56 45 57.3431 45 59C45 60.6569 51.7157 62 60 62Z" fill="url(#paint0_linear)"/>
<path d="M75.7821 43.0781C72.1371 38.1759 66.3006 35 59.7223 35C53.0475 35 47.1364 38.2698 43.5034 43.295" stroke="url(#paint1_linear)" stroke-width="6" stroke-linecap="round"/>
<g filter="url(#filter0_f)">
<path d="M75.7821 43.5781C72.1371 38.6759 66.3006 35.5 59.7223 35.5C53.0475 35.5 47.1364 38.7698 43.5034 43.795" stroke="#DCEBFF" stroke-linecap="round"/>
</g>
<path fill-rule="evenodd" clip-rule="evenodd" d="M89.9023 36.3669C83.3012 26.2388 72.0415 20 59.7225 20C56.1469 20 52.638 20.5223 49.2789 21.539C48.0881 21.8995 47.286 22.9337 47.1636 24.098C47.1511 24.2163 47.2119 24.3361 47.2731 24.4566C47.3226 24.5543 47.3725 24.6524 47.3838 24.7508C47.3921 24.823 47.5108 24.8192 47.6548 24.8146C47.8621 24.808 48.122 24.7997 48.1801 25.0145C48.2333 25.211 48.1365 25.3786 48.0538 25.5219C47.9833 25.6439 47.9231 25.7483 47.9745 25.8377C48.0557 25.979 48.0012 26.111 47.9505 26.2339C47.8958 26.3665 47.8454 26.4886 47.9745 26.6005C48.0358 26.6537 48.1301 26.6806 48.2302 26.7092C48.362 26.7468 48.5039 26.7873 48.5944 26.8944C48.7011 27.0204 48.8556 27.0364 48.9907 27.0504C49.0576 27.0573 49.1196 27.0637 49.1687 27.0828C49.3075 27.1366 49.3275 27.2382 49.3457 27.3313C49.3655 27.4318 49.3832 27.5223 49.5467 27.5317C49.8889 27.5513 50.67 27.3868 51.0172 27.2817C53.8141 26.4351 56.7375 26 59.7225 26C69.9918 26 79.3707 31.1967 84.8757 39.6431C85.7804 41.0311 87.639 41.423 89.0271 40.5183C90.4152 39.6136 90.807 37.755 89.9023 36.3669ZM43.0194 24.3184C42.6498 24.3695 42.1938 24.5464 41.8503 24.7432C36.8565 27.6042 32.6085 31.6305 29.4815 36.4613C28.5811 37.8522 28.9788 39.7096 30.3697 40.61C31.7605 41.5103 33.6179 41.1126 34.5183 39.7218C37.1259 35.6934 40.6698 32.3345 44.8329 29.9493C44.8717 29.9271 44.9073 29.907 44.9401 29.8883C45.3225 29.6716 45.3454 29.6586 45.9705 28.9317C46.3278 28.516 46.2419 27.9063 46.14 27.5953C46.0976 27.466 45.9981 27.3895 45.897 27.3119C45.7795 27.2216 45.6598 27.1297 45.6249 26.9512C45.598 26.8137 45.6415 26.6703 45.6846 26.5279C45.7399 26.3457 45.7946 26.1653 45.7005 26.001C45.5205 25.6868 45.3446 25.6217 45.1411 25.5464C45.0879 25.5268 45.0329 25.5064 44.9754 25.4807C44.838 25.4194 44.6183 25.3856 44.3759 25.3484C44.346 25.3438 44.3157 25.3391 44.2852 25.3344C44.1037 25.306 44.0118 25.1353 43.9305 24.984C43.8681 24.868 43.8118 24.7634 43.7261 24.7432C43.5636 24.705 43.4791 24.603 43.4005 24.508C43.3063 24.3943 43.2205 24.2906 43.0194 24.3184Z" fill="url(#paint2_linear)"/>
<mask id="mask0" mask-type="alpha" maskUnits="userSpaceOnUse" x="28" y="20" width="63" height="22">
<path fill-rule="evenodd" clip-rule="evenodd" d="M89.9023 36.3669C83.3012 26.2388 72.0415 20 59.7225 20C56.1469 20 52.638 20.5223 49.2789 21.539C48.0881 21.8995 47.286 22.9337 47.1636 24.098C47.1511 24.2163 47.2119 24.3361 47.2731 24.4566C47.3226 24.5543 47.3725 24.6524 47.3838 24.7508C47.3921 24.823 47.5108 24.8192 47.6548 24.8146C47.8621 24.808 48.122 24.7997 48.1801 25.0145C48.2333 25.211 48.1365 25.3786 48.0538 25.5219C47.9833 25.6439 47.9231 25.7483 47.9745 25.8377C48.0557 25.979 48.0012 26.111 47.9505 26.2339C47.8958 26.3665 47.8454 26.4886 47.9745 26.6005C48.0358 26.6537 48.1301 26.6806 48.2302 26.7092C48.362 26.7468 48.5039 26.7873 48.5944 26.8944C48.7011 27.0204 48.8556 27.0364 48.9907 27.0504C49.0576 27.0573 49.1196 27.0637 49.1687 27.0828C49.3075 27.1366 49.3275 27.2382 49.3457 27.3313C49.3655 27.4318 49.3832 27.5223 49.5467 27.5317C49.8889 27.5513 50.67 27.3868 51.0172 27.2817C53.8141 26.4351 56.7375 26 59.7225 26C69.9918 26 79.3707 31.1967 84.8757 39.6431C85.7804 41.0311 87.639 41.423 89.0271 40.5183C90.4152 39.6136 90.807 37.755 89.9023 36.3669ZM43.0194 24.3184C42.6498 24.3695 42.1938 24.5464 41.8503 24.7432C36.8565 27.6042 32.6085 31.6305 29.4815 36.4613C28.5811 37.8522 28.9788 39.7096 30.3697 40.61C31.7605 41.5103 33.6179 41.1126 34.5183 39.7218C37.1259 35.6934 40.6698 32.3345 44.8329 29.9493C44.8717 29.9271 44.9073 29.907 44.9401 29.8883C45.3225 29.6716 45.3454 29.6586 45.9705 28.9317C46.3278 28.516 46.2419 27.9063 46.14 27.5953C46.0976 27.466 45.9981 27.3895 45.897 27.3119C45.7795 27.2216 45.6598 27.1297 45.6249 26.9512C45.598 26.8137 45.6415 26.6703 45.6846 26.5279C45.7399 26.3457 45.7946 26.1653 45.7005 26.001C45.5205 25.6868 45.3446 25.6217 45.1411 25.5464C45.0879 25.5268 45.0329 25.5064 44.9754 25.4807C44.838 25.4194 44.6183 25.3856 44.3759 25.3484C44.346 25.3438 44.3157 25.3391 44.2852 25.3344C44.1037 25.306 44.0118 25.1353 43.9305 24.984C43.8681 24.868 43.8118 24.7634 43.7261 24.7432C43.5636 24.705 43.4791 24.603 43.4005 24.508C43.3063 24.3943 43.2205 24.2906 43.0194 24.3184Z" fill="white"/>
</mask>
<g mask="url(#mask0)">
<path fill-rule="evenodd" clip-rule="evenodd" d="M43.1224 24.3139C43.1224 24.3139 42.1141 24.4912 41.8504 24.7432C41.5868 24.9953 41.4057 25.5289 41.6085 25.8006C41.8112 26.0722 41.8513 25.9016 41.8947 26.2056C41.938 26.5096 41.5477 26.747 41.7952 27.1102C42.0427 27.4735 42.2774 27.2581 42.516 27.3595C42.7547 27.461 42.5682 27.5635 42.516 28.1001C42.4639 28.6367 43.0013 28.8099 43.3018 28.8099C43.6024 28.8099 44.3594 28.9885 44.4248 29.4548C44.4902 29.9211 45.3867 29.5922 45.3867 29.5922L46.7375 28.4731L46.6044 26.2056L45.6056 25.1603L44.0178 24.2526L43.1224 24.3139Z" fill="url(#paint3_linear)"/>
</g>
<g filter="url(#filter1_f)">
<path d="M50.0939 24.9044L50.2373 25.3834L50.2373 25.3834L50.0939 24.9044ZM87.8077 38.732L88.2266 38.459L88.2266 38.459L87.8077 38.732ZM87.6618 39.4239L87.3888 39.005L87.3888 39.005L87.6618 39.4239ZM86.9699 39.278L87.3888 39.005L87.3888 39.005L86.9699 39.278ZM50.3808 25.8624L50.5243 26.3413L50.5243 26.3413L50.3808 25.8624ZM49.7584 25.5269L49.2794 25.6704L49.2794 25.6704L49.7584 25.5269ZM43.3236 28.8186L43.5755 29.2505L43.5755 29.2505L43.3236 28.8186ZM43.4676 28.2715L43.8995 28.0196L43.8995 28.0196L43.4676 28.2715ZM32.3354 39.3089L32.7552 39.5806L32.7552 39.5806L32.3354 39.3089ZM31.7823 39.4273L31.5106 39.847L31.5106 39.847L31.7823 39.4273ZM31.6639 38.8742L32.0836 39.1459L32.0836 39.1459L31.6639 38.8742ZM42.9206 28.1275L43.1724 28.5594L43.1724 28.5594L42.9206 28.1275ZM59.7223 23C56.3272 23 53.0465 23.4979 49.9504 24.4255L50.2373 25.3834C53.2414 24.4835 56.4254 24 59.7223 24V23ZM88.2266 38.459C82.1622 29.1544 71.6613 23 59.7223 23V24C71.3091 24 81.5012 29.9715 87.3888 39.005L88.2266 38.459ZM87.9348 39.8428C88.3975 39.5412 88.5281 38.9216 88.2266 38.459L87.3888 39.005L87.3888 39.005L87.9348 39.8428ZM86.551 39.551C86.8526 40.0137 87.4721 40.1443 87.9348 39.8428L87.3888 39.005L87.3888 39.005L86.551 39.551ZM59.7223 25C70.957 25 80.8402 30.7888 86.551 39.551L87.3888 39.005C81.5012 29.9715 71.3091 24 59.7223 24V25ZM50.5243 26.3413C53.4363 25.469 56.5236 25 59.7223 25V24C56.4254 24 53.2414 24.4835 50.2373 25.3834L50.5243 26.3413ZM49.2794 25.6704C49.4379 26.1994 49.9953 26.4998 50.5243 26.3413L50.2373 25.3834L50.2373 25.3834L49.2794 25.6704ZM49.9504 24.4255C49.4213 24.5839 49.1209 25.1413 49.2794 25.6704L50.2373 25.3834L50.2373 25.3834L49.9504 24.4255ZM43.5755 29.2505C44.0048 29.0001 44.1499 28.449 43.8995 28.0196L43.0357 28.5234C43.0079 28.4757 43.024 28.4145 43.0717 28.3866L43.5755 29.2505ZM32.7552 39.5806C35.4965 35.3456 39.2084 31.7972 43.5755 29.2505L43.0717 28.3866C38.5689 31.0126 34.7421 34.6709 31.9157 39.0372L32.7552 39.5806ZM31.5106 39.847C31.9279 40.1171 32.4851 39.9978 32.7552 39.5806L31.9157 39.0372C31.9457 38.9908 32.0076 38.9776 32.054 39.0076L31.5106 39.847ZM31.2441 38.6025C30.974 39.0197 31.0933 39.5769 31.5106 39.847L32.054 39.0076C32.1004 39.0376 32.1136 39.0995 32.0836 39.1459L31.2441 38.6025ZM42.6687 27.6956C38.0572 30.3848 34.1385 34.1311 31.2441 38.6025L32.0836 39.1459C34.893 34.8058 38.6968 31.1695 43.1724 28.5594L42.6687 27.6956ZM43.8995 28.0196C43.6491 27.5903 43.0981 27.4452 42.6687 27.6956L43.1724 28.5594C43.1247 28.5872 43.0635 28.5711 43.0357 28.5234L43.8995 28.0196Z" fill="#D2DFF0"/>
</g>
<path fill-rule="evenodd" clip-rule="evenodd" d="M60 58C63.3137 58 66 55.3137 66 52C66 48.6863 63.3137 46 60 46C56.6863 46 54 48.6863 54 52C54 55.3137 56.6863 58 60 58Z" fill="url(#paint4_linear)"/>
<g filter="url(#filter2_f)">
<path fill-rule="evenodd" clip-rule="evenodd" d="M60 56C62.2091 56 64 54.2091 64 52C64 49.7909 62.2091 48 60 48C57.7909 48 56 49.7909 56 52C56 54.2091 57.7909 56 60 56Z" stroke="#DCEBFF" stroke-linecap="round"/>
</g>
<path fill-rule="evenodd" clip-rule="evenodd" d="M66 3.5C66 2.67157 66.6716 2 67.5 2H84.5C85.3284 2 86 2.67157 86 3.5C86 4.32843 85.3284 5 84.5 5H80.1689C79.9025 5.34549 79.6158 5.84645 79.6158 6.40233C79.6158 6.99495 79.9417 7.59452 80.2214 8H88.5C89.3284 8 90 8.67157 90 9.5C90 10.3284 89.3284 11 88.5 11H71.5C70.6716 11 70 10.3284 70 9.5C70 8.67157 70.6716 8 71.5 8H75.8784C76.1631 7.58508 76.5079 6.96611 76.5079 6.40233C76.5079 5.87999 76.2119 5.36292 75.942 5H67.5C66.6716 5 66 4.32843 66 3.5Z" fill="#3D4866"/>
<path fill-rule="evenodd" clip-rule="evenodd" d="M4 35C4 34.4477 4.44772 34 5 34H17C17.5523 34 18 34.4477 18 35C18 35.5523 17.5523 36 17 36H11H5C4.44772 36 4 35.5523 4 35ZM14.3388 38C14.2657 37.8163 14.2169 37.621 14.2169 37.4267C14.2169 36.6481 15 36.0131 15 36.0131L11 36C11 36 11.7831 36.7067 11.7831 37.4267C11.7831 37.6153 11.7294 37.8122 11.6501 38H8C7.44772 38 7 38.4477 7 39C7 39.5523 7.44772 40 8 40H20C20.5523 40 21 39.5523 21 39C21 38.4477 20.5523 38 20 38H14.3388Z" fill="#3D4866"/>
<defs>
<filter id="filter0_f" x="39.5034" y="31.5" width="40.2788" height="16.295" filterUnits="userSpaceOnUse" color-interpolation-filters="sRGB">
<feFlood flood-opacity="0" result="BackgroundImageFix"/>
<feBlend mode="normal" in="SourceGraphic" in2="BackgroundImageFix" result="shape"/>
<feGaussianBlur stdDeviation="1.75" result="effect1_foregroundBlur"/>
</filter>
<filter id="filter1_f" x="27.0222" y="18.9226" width="65.4442" height="25.16" filterUnits="userSpaceOnUse" color-interpolation-filters="sRGB">
<feFlood flood-opacity="0" result="BackgroundImageFix"/>
<feBlend mode="normal" in="SourceGraphic" in2="BackgroundImageFix" result="shape"/>
<feGaussianBlur stdDeviation="2.03871" result="effect1_foregroundBlur"/>
</filter>
<filter id="filter2_f" x="51.5" y="43.5" width="17" height="17" filterUnits="userSpaceOnUse" color-interpolation-filters="sRGB">
<feFlood flood-opacity="0" result="BackgroundImageFix"/>
<feBlend mode="normal" in="SourceGraphic" in2="BackgroundImageFix" result="shape"/>
<feGaussianBlur stdDeviation="2" result="effect1_foregroundBlur"/>
</filter>
<linearGradient id="paint0_linear" x1="33.5979" y1="52.6987" x2="33.5979" y2="63.2596" gradientUnits="userSpaceOnUse">
<stop stop-color="#EBF3FF"/>
<stop offset="1" stop-color="#F8FBFF" stop-opacity="0.01"/>
</linearGradient>
<linearGradient id="paint1_linear" x1="38.5103" y1="32.4337" x2="38.5103" y2="43.295" gradientUnits="userSpaceOnUse">
<stop stop-color="#7D8FB3"/>
<stop offset="0.523992" stop-color="#6B7A99"/>
<stop offset="1" stop-color="#7D8FB3"/>
</linearGradient>
<linearGradient id="paint2_linear" x1="19.5032" y1="13.4747" x2="19.5032" y2="41.0919" gradientUnits="userSpaceOnUse">
<stop stop-color="#7D8FB3"/>
<stop offset="0.523992" stop-color="#6B7799"/>
<stop offset="1" stop-color="#7D8FB3"/>
</linearGradient>
<linearGradient id="paint3_linear" x1="44.397" y1="24.4196" x2="41.5132" y2="26.4466" gradientUnits="userSpaceOnUse">
<stop stop-color="#D2D9E9"/>
<stop offset="1" stop-color="#8594BA"/>
</linearGradient>
<linearGradient id="paint4_linear" x1="55.5" y1="48" x2="63" y2="56.5" gradientUnits="userSpaceOnUse">
<stop stop-color="#8FA3CC"/>
<stop offset="0.515625" stop-color="#7C8EB3"/>
<stop offset="1" stop-color="#8FA3CC"/>
</linearGradient>
</defs>
</svg>
