<svg width="120" height="80" viewBox="0 0 120 80" fill="none" xmlns="http://www.w3.org/2000/svg">
<path d="M52.0093 9.96326L20.0093 26.1424C20.0093 26.1424 20.0093 59.5118 52.0093 77.7133C84.0093 59.5118 84.0093 26.1424 84.0093 26.1424L52.0093 9.96326Z" fill="#135BEB"/>
<path d="M22.0589 27.3472L52.0093 12.2044L81.9596 27.3472C81.9569 27.3904 81.9541 27.4348 81.9511 27.4802C81.8918 28.3805 81.772 29.7019 81.5304 31.3508C81.0469 34.651 80.0777 39.2476 78.1377 44.3972C74.346 54.4618 66.8573 66.62 52.0093 75.4013C37.1612 66.62 29.6726 54.4618 25.8809 44.3972C23.9409 39.2476 22.9717 34.651 22.4882 31.3508C22.2466 29.7019 22.1268 28.3805 22.0674 27.4802C22.0645 27.4348 22.0616 27.3904 22.0589 27.3472Z" stroke="url(#paint0_linear)" stroke-width="4"/>
<rect x="33.0093" y="26" width="15" height="3.9853" rx="1" fill="white"/>
<rect x="25.0093" y="35.9633" width="15" height="3.9853" rx="1" fill="white"/>
<rect x="42.0093" y="45.9265" width="7" height="3.9853" rx="1" fill="white"/>
<rect x="62.0093" y="35.9633" width="4" height="3.9853" rx="1" fill="white"/>
<rect x="68.0093" y="35.9633" width="4" height="3.9853" rx="1" fill="white"/>
<rect x="42.0093" y="35.9633" width="15" height="3.9853" rx="1" fill="white"/>
<rect x="51.0093" y="45.9265" width="17" height="3.9853" rx="1" fill="white"/>
<rect x="42.0093" y="55.8898" width="20" height="3.9853" rx="1" fill="white"/>
<rect y="78" width="120" height="2" fill="#3D4356"/>
<path d="M90.0534 10.7823C89.9627 11.5985 89.3467 12.2559 89.1184 13.0442C88.7749 14.2306 89.3689 15.5038 90.1816 16.4278C91.506 17.9179 93.3655 18.8102 95.3453 18.9055C95.6332 18.9311 95.9233 18.8991 96.199 18.8115C96.4452 18.7114 96.6669 18.5583 96.8486 18.3629C97.4606 17.7419 97.7891 16.8815 97.92 16.0151C98.0509 15.1488 98.0001 14.2661 97.9489 13.3912C97.9491 13.2104 97.9166 13.031 97.8529 12.862C97.7695 12.701 97.6548 12.5586 97.5158 12.4432C97.0752 12.0348 96.5899 11.6785 96.0693 11.3813C95.834 11.2748 95.6265 11.1143 95.4632 10.9126C95.3648 10.7399 95.3012 10.5492 95.2758 10.3515L95.116 9.52852C95.0875 9.29136 95.0074 9.06354 94.8814 8.86141C94.599 8.47656 94.059 8.42419 93.5853 8.40541L91.8499 8.33662C91.3101 8.31522 90.5989 8.15879 90.0719 8.26592C89.5798 8.36596 89.7432 8.82421 89.8326 9.24147C89.9623 9.74527 90.0363 10.262 90.0534 10.7823Z" fill="#A0616A"/>
<path d="M90.0534 10.7823C89.9627 11.5985 89.3467 12.2559 89.1184 13.0442C88.7749 14.2306 89.3689 15.5038 90.1816 16.4278C91.506 17.9179 93.3655 18.8102 95.3453 18.9055C95.6332 18.9311 95.9233 18.8991 96.199 18.8115C96.4452 18.7114 96.6669 18.5583 96.8486 18.3629C97.4606 17.7419 97.7891 16.8815 97.92 16.0151C98.0509 15.1488 98.0001 14.2661 97.9489 13.3912C97.9491 13.2104 97.9166 13.031 97.8529 12.862C97.7695 12.701 97.6548 12.5586 97.5158 12.4432C97.0752 12.0348 96.5899 11.6785 96.0693 11.3813C95.834 11.2748 95.6265 11.1143 95.4632 10.9126C95.3648 10.7399 95.3012 10.5492 95.2758 10.3515L95.116 9.52852C95.0875 9.29136 95.0074 9.06354 94.8814 8.86141C94.599 8.47656 94.059 8.42419 93.5853 8.40541L91.8499 8.33662C91.3101 8.31522 90.5989 8.15879 90.0719 8.26592C89.5798 8.36596 89.7432 8.82421 89.8326 9.24147C89.9623 9.74527 90.0363 10.262 90.0534 10.7823Z" fill="#D5B09E"/>
<path d="M101.093 47.5197C100.847 50.244 100.601 52.9679 100.355 55.6913C100.163 57.8346 99.9666 59.9866 99.5891 62.1023C99.4587 62.8313 99.306 63.5566 99.1247 64.2757C98.6205 66.2721 97.8892 68.2234 97.6532 70.2701C97.6458 70.329 97.6396 70.3893 97.6334 70.4495C97.607 70.9021 97.5222 71.3492 97.3813 71.7796C97.2633 72.0921 97.082 72.3769 96.9541 72.6856C96.6996 73.303 96.6661 73.9857 96.635 74.6545C95.7396 74.1456 94.7594 73.807 93.743 73.6556C93.2525 73.5816 92.7062 73.5289 92.3721 73.1587C92.0021 72.7496 92.0431 72.1235 92.1052 71.5738C92.3001 69.8673 92.4947 68.1615 92.6888 66.4566C92.7521 65.7231 92.8755 64.9961 93.0576 64.2832C93.1246 64.046 93.2053 63.8126 93.2873 63.5792C93.4003 63.258 93.5145 62.9368 93.6002 62.6067C93.7237 62.0735 93.81 61.5322 93.8585 60.9867C94.0584 59.2701 94.2993 57.5572 94.5104 55.8419L94.5216 55.7515C94.8382 53.1515 95.0791 50.5389 95.0096 47.92C94.9996 47.5323 94.9835 47.1445 94.9587 46.7555C94.9239 46.1921 94.873 45.8935 95.3349 45.5409C95.8453 45.1518 96.517 44.8795 97.1007 44.6248C97.4148 44.4868 100.874 43.2457 100.955 43.518C101.117 44.0989 101.202 44.6989 101.208 45.3024C101.211 46.0431 101.172 46.7834 101.093 47.5197Z" fill="#5D6082"/>
<path opacity="0.1" d="M99.5889 62.1022C99.4585 62.8313 99.3058 63.5566 99.1245 64.2756C98.6203 66.2721 97.889 68.2234 97.653 70.27C97.6456 70.329 97.6394 70.3892 97.6332 70.4495C96.0909 68.2234 94.7921 65.8291 93.2871 63.5792C93.4001 63.2579 93.5143 62.9367 93.6 62.6067C93.7235 62.0734 93.8098 61.5321 93.8583 60.9867C94.0582 59.27 94.2991 57.5572 94.5102 55.8418L94.5214 55.7515C94.6097 56.1156 94.7358 56.4694 94.8976 56.8068C95.9084 58.8823 98.3099 59.9314 99.4846 61.9178C99.5206 61.9793 99.5554 62.0407 99.5889 62.1022Z" fill="black"/>
<path d="M87.0746 43.8518C87.1255 45.5164 87.3892 47.1661 87.6524 48.8102L88.1953 52.2023C88.4925 54.0589 88.8018 55.9532 89.6712 57.6161C90.3216 58.8599 91.2586 59.9214 92.1062 61.0373C94.1901 63.7809 95.7556 66.8887 97.7316 69.7126C98.3059 70.5334 99.1269 71.421 100.107 71.2496C100.75 71.1371 101.218 70.5959 101.723 70.1785C102.32 69.6865 103.038 69.3265 103.507 68.7098C103.976 68.0931 104.068 67.0679 103.433 66.6291C103.203 66.5004 102.959 66.3994 102.705 66.3283C101.72 65.9497 101.082 64.9774 100.677 63.9943C100.271 63.0113 100.025 61.9542 99.4844 61.0398C98.3099 59.0534 95.908 58.0044 94.897 55.9282C94.3307 54.7653 94.2768 53.425 94.2335 52.1296L94.1231 48.8277C94.1111 48.4666 94.1016 48.091 94.2469 47.7609C94.6336 46.882 95.8013 46.8001 96.7467 46.6887C97.8198 46.5616 98.8593 46.2301 99.8103 45.7119C100.355 45.4147 100.887 45.0359 101.178 44.4841C101.444 43.9807 101.481 43.3902 101.512 42.8205L101.839 36.8364C101.867 36.3216 101.893 35.7893 101.713 35.3066C101.263 34.0947 99.7482 33.6987 98.4683 33.7565C96.0866 33.8641 93.8879 34.8995 91.6422 35.5987C91.086 35.776 90.5213 35.9248 89.9502 36.0447C89.4462 36.1469 88.8363 36.1045 88.3556 36.2682C87.5007 36.5595 87.5225 38.4487 87.4012 39.2323C87.1509 40.7586 87.0415 42.3051 87.0746 43.8518Z" fill="#5D6082"/>
<path d="M99.7839 71.5006C99.9939 71.7146 100.063 72.0282 100.117 72.3245C100.421 73.9682 100.578 75.6359 100.589 77.3078C100.575 77.4638 100.606 77.6206 100.678 77.7593C100.737 77.8421 100.817 77.9072 100.91 77.9477C101.517 78.2401 102.221 77.8327 102.727 77.3849C103.665 76.5548 104.458 75.4407 104.511 74.1822C104.501 73.858 104.513 73.5336 104.545 73.2109C104.627 72.7371 104.901 72.3242 105.142 71.9095C105.553 71.2036 105.884 70.4534 106.13 69.6731C106.222 69.3799 106.283 69.0108 106.056 68.8062C105.975 68.7423 105.884 68.6942 105.786 68.6642L103.043 67.6353C102.806 67.5462 102.215 69.081 102.121 69.2488C101.891 69.6593 101.663 69.8923 101.202 69.987C100.732 70.0837 100.173 69.945 99.7341 70.182C98.9921 70.5829 99.3638 71.0724 99.7839 71.5006Z" fill="#505870"/>
<path d="M95.553 72.4477C95.502 72.3452 95.431 72.2543 95.3443 72.1803C95.2173 72.0989 95.073 72.0494 94.9233 72.0358C94.4013 71.9462 93.7825 71.8872 93.4222 72.2793C93.0845 72.6469 93.1425 73.2458 92.8601 73.6583C92.7707 73.789 92.6496 73.8966 92.5721 74.0347C92.4759 74.2459 92.4325 74.4777 92.4457 74.7098C92.4311 75.3493 92.4166 75.9899 92.4603 76.628C92.4969 77.1628 92.5861 77.7231 92.917 78.142C93.4481 78.8144 94.406 78.9111 95.2563 78.9547L95.9449 78.9901C96.1345 79.0134 96.3269 78.9955 96.5092 78.9378C96.7372 78.8313 96.9128 78.636 96.996 78.3966C97.3544 77.4962 96.7868 76.5262 96.4371 75.6224C96.0352 74.5835 96.1074 73.4299 95.553 72.4477Z" fill="#505870"/>
<path d="M89.8538 6.18335C89.8454 6.09208 89.8587 6.00009 89.8925 5.91505C89.9934 5.73483 90.2568 5.78388 90.4554 5.8345C91.2544 6.03805 92.0962 5.8538 92.9188 5.90135C93.7414 5.9489 94.668 6.36448 94.8334 7.18019C95.4305 6.75243 95.9452 6.218 96.3522 5.60324C96.5805 5.25798 96.7795 4.86252 96.7484 4.44846C96.7036 3.85124 96.2077 3.4046 95.7486 3.02585L94.38 1.89679C94.2004 1.72997 93.9929 1.59667 93.7672 1.50309C93.4512 1.39395 93.1066 1.44595 92.7726 1.44617C91.7763 1.44681 90.7142 0.988639 89.8281 1.4489C89.458 1.64117 89.1794 1.97064 88.9109 2.29189L87.6894 3.75308C87.5974 3.8462 87.5303 3.9613 87.4941 4.08768C87.4594 4.26604 87.55 4.44206 87.5817 4.621C87.6393 4.94743 87.5002 5.29581 87.6072 5.6093C87.7848 6.12971 88.41 6.20338 88.7923 6.50173C88.9348 6.61293 89.1581 6.98977 89.3278 6.98517C89.6341 6.97687 89.8459 6.42382 89.8538 6.18335Z" fill="#3F3D56"/>
<ellipse cx="91.9263" cy="6.53772" rx="3.91146" ry="3.95276" fill="#F0C7B3"/>
<path d="M92.8423 15.1884C92.5699 14.4001 91.8235 13.881 90.9976 13.9056C90.8825 13.9273 90.7636 13.9121 90.6574 13.8621C90.5973 13.8155 90.5494 13.7549 90.5175 13.6855C90.2797 13.2532 90.0885 12.7965 89.9472 12.323C89.8848 12.1137 89.7995 11.8671 89.5901 11.8127C89.4134 11.7893 89.2383 11.8663 89.1348 12.0128C89.0353 12.1576 88.9266 12.2957 88.8094 12.4261C88.3174 12.8706 87.4454 12.4655 86.9232 12.8733C86.8379 12.9399 86.7676 13.0253 86.678 13.0858C86.5883 13.1404 86.4917 13.1823 86.3908 13.2103C85.3825 13.5429 84.3941 13.9341 83.4304 14.382C83.7777 16.4957 84.1336 18.6463 84.9477 20.6247C85.3352 21.5662 85.7742 22.4883 86.0845 23.4586C86.7719 25.6084 86.8023 27.9086 86.81 30.1679C86.8153 31.7142 86.8077 33.2934 86.3127 34.7565C86.1795 35.0799 86.0856 35.4184 86.0331 35.7645C86.0032 36.1132 86.1036 36.4976 86.3832 36.7042C86.5453 36.8113 86.7306 36.8771 86.9234 36.8959C87.7812 37.0231 88.6459 36.7924 89.4905 36.5947C91.7543 36.0649 94.0631 35.7618 96.3675 35.4594L100.229 34.9527C100.506 34.9337 100.777 34.863 101.028 34.7441C101.734 34.3531 101.802 33.279 101.363 32.5963C101.152 32.269 100.856 32.0005 100.679 31.6535C100.502 31.3065 100.487 30.8212 100.791 30.5809C101.41 30.092 101.226 29.1849 101.255 28.3916C101.338 26.1734 101.327 23.9543 101.222 21.7343C101.191 21.2747 101.183 20.8139 101.2 20.3536C101.268 19.5736 101.411 18.802 101.626 18.0496L102.799 13.381C102.493 12.8915 101.906 12.5809 101.35 12.4399C100.794 12.2989 100.215 12.2574 99.6672 12.086C98.5455 11.7348 97.5469 10.8434 96.3755 10.9265C96.2869 10.9281 96.1997 10.9496 96.1204 10.9894C95.8562 11.1407 95.898 11.5254 95.8811 11.8318C95.8437 12.5096 95.3504 13.0761 94.8056 13.4733C94.2608 13.8705 93.6386 14.1602 93.1382 14.6131C92.9586 14.7499 92.8498 14.9613 92.8423 15.1884Z" fill="#3D4556"/>
<path d="M77.344 19.6167C77.0846 19.7868 76.809 19.9301 76.5213 20.0445C76.2395 20.1292 75.9733 20.2598 75.7331 20.4311C75.6225 20.5278 75.5297 20.6437 75.4591 20.7732C75.1894 21.2565 75.2014 21.8498 75.4903 22.3216C75.7792 22.7934 76.2993 23.0688 76.8476 23.0405C77.2054 23 77.5532 22.8952 77.8745 22.7311L80.6333 21.523C81.1002 21.3185 81.6046 21.0789 81.8253 20.6155C81.851 20.5723 81.8606 20.5212 81.8522 20.4715C81.8299 20.4189 81.7897 20.3762 81.7389 20.3511C81.1166 19.9427 80.5724 19.4241 80.1325 18.8203C80.0193 18.665 79.8808 18.2983 79.7208 18.2052C79.1368 17.8654 77.8114 19.3102 77.344 19.6167Z" fill="#F0C7B3"/>
<path d="M106.837 18.6254L107.854 19.7995C108.072 20.0516 108.291 20.304 108.49 20.5719C108.979 21.2526 109.371 21.9991 109.655 22.7896C109.876 23.3759 110.059 24.0004 109.982 24.6229C109.931 24.9421 109.846 25.2547 109.728 25.5553C109.541 26.1334 109.31 26.6959 109.037 27.2374C108.806 27.6489 108.546 28.0426 108.259 28.4153C107.471 29.47 106.61 30.466 105.68 31.3956C105.333 31.7435 105.187 32.3059 105.036 32.7761C104.756 33.6434 104.092 34.3189 103.45 34.9595C103.243 35.1798 103.015 35.3782 102.769 35.5517C102.4 35.7919 101.968 35.916 101.529 35.9083C101.337 35.9097 101.147 35.8699 100.971 35.7915C100.531 35.5806 100.308 35.0668 100.262 34.5772C100.221 34.1329 100.295 33.6854 100.476 33.2784C101.06 31.9718 102.559 31.4056 103.618 30.4523C104.239 29.8933 104.714 29.1911 105.183 28.4965C105.501 28.0629 105.767 27.5922 105.974 27.0947C106.211 26.4567 106.119 25.7015 106.325 25.053C106.413 24.7789 106.568 24.5314 106.662 24.2595C106.756 23.9876 106.78 23.6648 106.615 23.4296C106.491 23.28 106.333 23.1631 106.155 23.0889C105.478 22.7417 104.72 22.295 104.591 21.5393C104.539 21.1202 104.647 20.6969 104.894 20.3558C105.139 20.0191 105.426 19.7154 105.747 19.4519C106.043 19.1874 106.541 18.8899 106.837 18.6254Z" fill="#F0C7B3"/>
<path d="M76.691 21.2558C76.5114 20.8892 76.2869 20.5151 75.9245 20.3328C75.5694 20.177 75.1666 20.1753 74.8103 20.3281C74.4589 20.4812 74.1299 20.6822 73.8325 20.9256L72.9558 21.5787C72.757 21.7105 72.5811 21.8745 72.4353 22.0642C72.2969 22.2943 72.2048 22.5497 72.1642 22.8158C72.0114 23.4227 71.9647 24.0519 72.0264 24.675C72.1655 25.6741 72.7615 26.5463 73.4176 27.3068C73.8276 27.782 74.3337 28.2616 74.9572 28.2819C75.2264 28.2906 75.5257 28.1834 75.6377 27.9359C75.6765 27.8378 75.6971 27.7333 75.6985 27.6276C75.7658 26.5132 75.3713 25.4247 74.9113 24.4097C74.7647 24.1439 74.678 23.8486 74.6575 23.545C74.6542 23.4939 74.6674 23.4431 74.695 23.4001C74.7347 23.3584 74.7877 23.3323 74.8447 23.3263C75.4743 23.2005 76.5588 23.6947 77.0004 22.9882C77.2868 22.5301 76.8945 21.6712 76.691 21.2558Z" fill="#F0C7B3"/>
<path d="M89.6487 4.97413C89.6403 4.88222 89.6536 4.78959 89.6875 4.70396C89.7883 4.52248 90.0517 4.57187 90.2503 4.62284C91.0493 4.82782 91.8911 4.64227 92.7137 4.69016C93.5363 4.73805 94.463 5.15654 94.6284 5.97794C95.2254 5.54719 95.7401 5.00902 96.1471 4.38996C96.3754 4.04229 96.5744 3.64406 96.5433 3.22711C96.4985 2.62571 96.0026 2.17595 95.5435 1.79454L94.1749 0.657587C93.9953 0.489595 93.7878 0.355364 93.5622 0.261134C93.2461 0.15123 92.9015 0.203593 92.5675 0.203811C91.5713 0.204461 90.5091 -0.25692 89.623 0.206563C89.2529 0.40017 88.9743 0.731946 88.7058 1.05545L87.4843 2.52686C87.3924 2.62063 87.3252 2.73654 87.2891 2.8638C87.2543 3.0434 87.3449 3.22066 87.3766 3.40086C87.4343 3.72957 87.2951 4.08039 87.4021 4.39606C87.5797 4.92012 88.205 4.9943 88.5872 5.29474C88.7297 5.40671 88.953 5.7862 89.1227 5.78156C89.429 5.7732 89.6408 5.21628 89.6487 4.97413Z" fill="#3D4556"/>
<path d="M81.3411 15.772C81.1832 15.8749 81.0445 16.0053 80.9317 16.1571C80.7883 16.3763 80.7591 16.6529 80.6359 16.8842C80.3723 17.3792 79.7557 17.5554 79.3711 17.9615C79.31 18.0173 79.2675 18.0909 79.2496 18.1722C79.2477 18.2824 79.2843 18.3898 79.3529 18.4755L81.2077 21.4222C81.8253 21.4771 82.4177 21.0861 83.0356 21.138C83.2662 21.1574 83.5023 21.2379 83.7235 21.1691C83.8819 21.0981 84.0303 21.0064 84.165 20.8962C84.5336 20.6607 85.0245 20.6332 85.3337 20.3225C85.6305 20.0243 85.6684 19.5577 85.6648 19.1348C85.6698 18.7675 85.6328 18.4009 85.5546 18.0422C85.2815 16.9111 84.4255 16.0432 83.8888 15.0412C83.6276 14.5535 83.4854 14.2679 82.9325 14.6028C82.3766 14.9395 81.8642 15.3854 81.3411 15.772Z" fill="#3D4556"/>
<path d="M103.868 14.2818C104.216 14.5106 104.53 14.7887 104.801 15.1078C105.083 15.476 105.243 15.9266 105.515 16.3032C105.778 16.6683 106.136 16.951 106.434 17.2872C106.887 17.7971 107.194 18.4191 107.495 19.0327C106.759 20.0018 105.958 20.9174 105.095 21.773C104.999 21.8873 104.873 21.9713 104.731 22.015C104.535 22.036 104.342 21.9563 104.216 21.8028C104.082 21.6612 103.988 21.4866 103.86 21.3395C103.559 21.0253 103.157 20.829 102.726 20.7853C102.299 20.7436 101.869 20.7376 101.441 20.7674C101.347 20.778 101.252 20.7618 101.167 20.7208C101.103 20.6765 101.052 20.6168 101.017 20.5472C100.515 19.6837 100.677 18.5995 100.854 17.614L101.26 15.3526C101.319 14.9207 101.433 14.4983 101.599 14.0958C101.753 13.7632 102.097 13.1993 102.52 13.2988C102.947 13.3992 103.509 14.0208 103.868 14.2818Z" fill="#3D4556"/>
<ellipse cx="24.4232" cy="32.0509" rx="14.4578" ry="14.4047" fill="#3D4556"/>
<path fill-rule="evenodd" clip-rule="evenodd" d="M23.9721 21.9774C24.9019 22.7495 26.1242 25.121 26.1242 27.8787C26.1242 29.2526 25.1988 30.5771 24.2335 31.9587C23.1072 33.5706 21.9267 35.2602 22.0984 37.1966C22.2266 38.643 22.7766 39.7191 23.1168 40.3848C23.4764 41.0883 23.6015 41.3332 22.7465 41.0718C19.7727 40.1629 16.8523 35.2444 19.9925 30.7584C20.2805 30.3468 20.6186 29.9577 20.9732 29.5495C22.2937 28.0294 23.8446 26.2441 23.9056 22.0468C23.9056 22.0462 23.9058 22.0458 23.9061 22.0453C23.9064 22.0448 23.9067 22.0443 23.9066 22.0435C23.901 21.9334 23.9683 21.9748 23.9721 21.9774ZM26.3544 33.2018C27.186 31.8984 27.842 30.4791 27.896 29.8153C27.9157 29.7816 27.9441 29.7913 27.9642 29.8054C28.6139 30.3806 30.4394 32.3601 30.1819 35.5003C29.9158 38.7433 27.4595 40.1668 27.3566 40.2199C26.4473 40.6907 26.4206 41.1545 26.315 41.1733C26.2682 41.1816 26.206 41.1028 26.0451 40.899C25.1413 39.7543 23.534 37.6232 26.3544 33.2018Z" fill="white"/>
<defs>
<linearGradient id="paint0_linear" x1="71.5093" y1="9.96326" x2="28.6943" y2="60.9312" gradientUnits="userSpaceOnUse">
<stop offset="0.00380914" stop-color="#3D4356"/>
<stop offset="0.00390914" stop-color="#3D4356"/>
<stop offset="1" stop-color="#3D4356"/>
</linearGradient>
</defs>
</svg>
